<svg width="31" height="30" viewBox="0 0 31 30" fill="none" xmlns="http://www.w3.org/2000/svg">
<path d="M0.313965 13.4841C0.313965 9.93276 1.73231 6.52687 4.25699 4.01569C6.78166 1.50451 10.2059 0.09375 13.7763 0.09375V13.4841L0.313965 13.4841Z" fill="#3669E9"/>
<path fill-rule="evenodd" clip-rule="evenodd" d="M24.1779 5.39731C21.964 3.92596 19.3612 3.14062 16.6986 3.14062V16.531H3.23633C3.23633 18.8184 3.82533 21.0614 4.939 23.0492L3.66699 29.147L9.94075 28.112C10.4559 28.4094 10.9923 28.6736 11.5468 28.902C14.0068 29.9155 16.7136 30.1807 19.325 29.664C21.9365 29.1474 24.3352 27.8721 26.2179 25.9994C28.1007 24.1267 29.3828 21.7408 29.9023 19.1433C30.4217 16.5458 30.1551 13.8535 29.1362 11.4067C28.1173 8.95994 26.3918 6.86866 24.1779 5.39731Z" fill="#3669E9"/>
</svg>
