<svg width="136" height="30" viewBox="0 0 136 30" fill="none" xmlns="http://www.w3.org/2000/svg">
<path d="M0.313965 13.4841C0.313965 9.93276 1.73231 6.52687 4.25699 4.01569C6.78166 1.50451 10.2059 0.09375 13.7763 0.09375V13.4841L0.313965 13.4841Z" fill="#3669E9"/>
<path fill-rule="evenodd" clip-rule="evenodd" d="M24.1779 5.39731C21.964 3.92596 19.3612 3.14062 16.6986 3.14062V16.531H3.23633C3.23633 18.8184 3.82533 21.0614 4.939 23.0492L3.66699 29.147L9.94075 28.112C10.4559 28.4094 10.9923 28.6736 11.5468 28.902C14.0068 29.9155 16.7136 30.1807 19.325 29.664C21.9365 29.1474 24.3352 27.8721 26.2179 25.9994C28.1007 24.1267 29.3828 21.7408 29.9023 19.1433C30.4217 16.5458 30.1551 13.8535 29.1362 11.4067C28.1173 8.95994 26.3918 6.86866 24.1779 5.39731Z" fill="#3669E9"/>
<path d="M131.883 22.4595C130.421 22.4595 129.679 21.6194 129.679 20.144V13.6686H128.031V12.3162H129.679V9.61128H131.224V12.3162H133.243V13.6686H131.224V19.8161C131.224 20.5538 131.554 21.0866 132.234 21.0866C132.666 21.0866 133.078 20.9022 133.284 20.6768L133.738 21.8243C133.346 22.1931 132.79 22.4595 131.883 22.4595Z" fill="#031B4E"/>
<path d="M117.39 17.2547C117.39 14.3858 119.451 12.0703 122.294 12.0703C125.302 12.0703 127.073 14.4063 127.073 17.3776V17.7669H119.018C119.142 19.6317 120.46 21.189 122.603 21.189C123.736 21.189 124.89 20.7382 125.672 19.9391L126.414 20.9431C125.425 21.9267 124.086 22.4595 122.459 22.4595C119.512 22.4595 117.39 20.3489 117.39 17.2547ZM122.273 13.3408C120.151 13.3408 119.1 15.1235 119.018 16.6399H125.549C125.528 15.1645 124.539 13.3408 122.273 13.3408Z" fill="#031B4E"/>
<path d="M113.546 22.2136V8.54572H115.091V22.2136H113.546Z" fill="#031B4E"/>
<path d="M109.125 22.2136V8.54572H110.67V22.2136H109.125Z" fill="#031B4E"/>
<path d="M104.688 22.2136V21.0866C103.864 21.9882 102.731 22.4595 101.392 22.4595C99.7026 22.4595 97.9102 21.3325 97.9102 19.1809C97.9102 16.9678 99.7026 15.9227 101.392 15.9227C102.752 15.9227 103.885 16.353 104.688 17.2751V15.4924C104.688 14.1604 103.617 13.4022 102.175 13.4022C100.98 13.4022 100.012 13.8326 99.1257 14.7752L98.4047 13.7096C99.476 12.6031 100.753 12.0703 102.381 12.0703C104.482 12.0703 106.233 13.0129 106.233 15.4104V22.2136H104.688ZM104.688 20.1235V18.2587C104.091 17.4391 103.04 17.0292 101.948 17.0292C100.506 17.0292 99.4966 17.9309 99.4966 19.2014C99.4966 20.4513 100.506 21.353 101.948 21.353C103.04 21.353 104.091 20.9431 104.688 20.1235Z" fill="#031B4E"/>
<path d="M91.8786 22.2136L88.8501 11.1891L85.8217 22.2136H83.9675L80.0532 8.54572H81.9485L84.9976 19.9391L88.1497 8.54572H89.5712L92.7233 19.9391L95.7517 8.54572H97.6471L93.7327 22.2136H91.8786Z" fill="#031B4E"/>
<path d="M64.9181 15.3899C64.9181 11.2711 67.9466 8.32031 72.0875 8.32031C76.2491 8.32031 79.2775 11.2711 79.2775 15.3899C79.2775 19.5087 76.2491 22.4595 72.0875 22.4595C67.9466 22.4595 64.9181 19.5087 64.9181 15.3899ZM76.2697 15.3899C76.2697 12.8285 74.6215 10.9023 72.0875 10.9023C69.5535 10.9023 67.926 12.8285 67.926 15.3899C67.926 17.9309 69.5535 19.8776 72.0875 19.8776C74.6215 19.8776 76.2697 17.9309 76.2697 15.3899Z" fill="#031B4E"/>
<path d="M53.7724 22.2136V8.54572H63.4964V11.0457H56.6979V14.017H63.3522V16.517H56.6979V19.6932H63.4964V22.2136H53.7724Z" fill="#031B4E"/>
<path d="M40.6777 20.2874L42.2847 18.0743C43.253 19.0784 44.7569 19.9186 46.6522 19.9186C48.2592 19.9186 49.042 19.1604 49.042 18.3817C49.042 17.3571 47.8471 17.0088 46.2608 16.6399C44.0152 16.1276 41.131 15.5129 41.131 12.4596C41.131 10.1851 43.1087 8.3408 46.3432 8.3408C48.527 8.3408 50.34 8.99654 51.6997 10.2465L50.0721 12.3777C48.9596 11.3531 47.4763 10.8818 46.1372 10.8818C44.8187 10.8818 44.1182 11.4555 44.1182 12.2752C44.1182 13.1973 45.2719 13.4842 46.8583 13.853C49.1245 14.3653 52.0087 15.0416 52.0087 18.0743C52.0087 20.5743 50.2164 22.4595 46.508 22.4595C43.871 22.4595 41.9756 21.5784 40.6777 20.2874Z" fill="#031B4E"/>
</svg>
