<svg width="22" height="22" viewBox="0 0 22 22" fill="none" xmlns="http://www.w3.org/2000/svg">
<path d="M13.1702 19.89C17.3542 19.613 20.6862 16.233 20.9602 11.99C21.0132 11.16 21.0132 10.3 20.9602 9.47C20.6862 5.228 17.3542 1.85 13.1702 1.571C11.7251 1.47576 10.2753 1.47576 8.83022 1.571C4.64622 1.849 1.31422 5.228 1.04022 9.471C0.987245 10.3102 0.987245 11.1518 1.04022 11.991C1.14022 13.536 1.82322 14.967 2.62822 16.175C3.09522 17.02 2.78722 18.075 2.30022 18.998C1.95022 19.663 1.77422 19.995 1.91522 20.235C2.05522 20.475 2.37022 20.483 2.99922 20.498C4.24422 20.528 5.08322 20.176 5.74922 19.685C6.12622 19.406 6.31522 19.267 6.44522 19.251C6.57522 19.235 6.83222 19.341 7.34422 19.551C7.80422 19.741 8.33922 19.858 8.82922 19.891C10.2542 19.985 11.7432 19.985 13.1712 19.891" stroke="#031B4E" stroke-width="1.33333" stroke-linecap="round" stroke-linejoin="round"/>
<path d="M9.487 6.001V7.98M6 9.501H8.052M14.023 9.501H16.075M14.023 12.475H16.075M6 12.475H8.052M9.487 14.02V16M12.512 14.02V16M12.503 6V7.98M9.053 13.969H13.024C13.2892 13.969 13.5436 13.8636 13.7311 13.6761C13.9186 13.4886 14.024 13.2342 14.024 12.969V8.98C14.024 8.71478 13.9186 8.46043 13.7311 8.27289C13.5436 8.08536 13.2892 7.98 13.024 7.98H9.053C8.78778 7.98 8.53343 8.08536 8.34589 8.27289C8.15836 8.46043 8.053 8.71478 8.053 8.98V12.969C8.053 13.2342 8.15836 13.4886 8.34589 13.6761C8.53343 13.8636 8.78778 13.969 9.053 13.969Z" stroke="#638FFF" stroke-width="1.33333" stroke-linecap="round" stroke-linejoin="round"/>
</svg>
