<svg width="19" height="21" viewBox="0 0 19 21" fill="none" xmlns="http://www.w3.org/2000/svg">
<path d="M11.1859 0.475538C11.0439 0.0967176 10.6216 -0.0952166 10.2428 0.0468411C9.86396 0.188899 9.67203 0.611154 9.81409 0.989975L13.4769 10.7574C13.5841 11.0433 13.8574 11.2328 14.1628 11.2328C14.4682 11.2328 14.7415 11.0433 14.8487 10.7574L18.5115 0.989975C18.6536 0.611154 18.4616 0.188899 18.0828 0.0468411C17.704 -0.0952166 17.2817 0.0967176 17.1397 0.475538L14.1628 8.41387L11.1859 0.475538Z" fill="#031B4E"/>
<path fill-rule="evenodd" clip-rule="evenodd" d="M7.56977 3.78508V10.5002C7.56977 10.9048 7.24179 11.2328 6.83721 11.2328C6.43263 11.2328 6.10465 10.9048 6.10465 10.5002V6.34904H1.46512V10.5002C1.46512 10.9048 1.13714 11.2328 0.732558 11.2328C0.327977 11.2328 0 10.9048 0 10.5002V3.78508C0 2.78127 0.398763 1.81857 1.10857 1.10877C1.81837 0.398962 2.78107 0.000198523 3.78488 0.000198523C4.7887 0.000198523 5.7514 0.398962 6.4612 1.10877C7.171 1.81857 7.56977 2.78127 7.56977 3.78508ZM2.14456 2.14476C2.5796 1.70972 3.16964 1.46531 3.78488 1.46531C4.40012 1.46531 4.99017 1.70972 5.42521 2.14476C5.86025 2.5798 6.10465 3.16984 6.10465 3.78508V4.88392H1.46512V3.78508C1.46512 3.16984 1.70952 2.5798 2.14456 2.14476Z" fill="#031B4E"/>
<path d="M14.8657 14.8659C15.1518 14.5798 15.6156 14.5798 15.9017 14.8659L18.3436 17.3077C18.4138 17.378 18.4668 17.4589 18.5026 17.5453C18.5373 17.629 18.5569 17.7206 18.5581 17.8166L18.5581 17.8257L18.5581 17.8349C18.5569 17.9309 18.5373 18.0224 18.5026 18.1061C18.4668 18.1925 18.4138 18.2735 18.3436 18.3437L15.9017 20.7856C15.6156 21.0717 15.1518 21.0717 14.8657 20.7856C14.5796 20.4995 14.5796 20.0357 14.8657 19.7496L16.057 18.5583H2.50111L3.69242 19.7496C3.9785 20.0357 3.9785 20.4995 3.69242 20.7856C3.40633 21.0717 2.9425 21.0717 2.65642 20.7856L0.214561 18.3437C0.144326 18.2735 0.091334 18.1925 0.0555853 18.1061C0.0200533 18.0205 0.000315617 17.9266 3.7842e-06 17.8281L0 17.8257C0 17.6234 0.0819943 17.4403 0.214561 17.3077L2.65642 14.8659C2.9425 14.5798 3.40633 14.5798 3.69242 14.8659C3.9785 15.1519 3.9785 15.6158 3.69242 15.9019L2.50111 17.0932H16.057L14.8657 15.9019C14.5796 15.6158 14.5796 15.1519 14.8657 14.8659Z" fill="#638FFF"/>
</svg>
