<svg width="24" height="24" viewBox="0 0 24 24" fill="none" xmlns="http://www.w3.org/2000/svg">
<g clip-path="url(#clip0_39_2038)">
<path d="M16.463 12C16.463 14.4652 14.4649 16.4634 12 16.4634C9.53506 16.4634 7.53701 14.4652 7.53701 12C7.53701 9.53484 9.53506 7.53661 12 7.53661C14.4649 7.53661 16.463 9.53484 16.463 12ZM11.9735 6.68129H22.7585C20.7976 2.72197 16.7166 0 12 0C8.1811 0 4.78026 1.78387 2.58166 4.5642L6.69661 11.601C6.90034 8.85886 9.18278 6.69508 11.9735 6.68129ZM12 17.3177C9.69847 17.3177 7.73862 15.8553 6.99797 13.8093L2.03201 5.31553C0.749138 7.22568 0 9.52423 0 11.9979C0 18.0382 4.46299 23.0354 10.2704 23.8737L14.4098 16.7393C13.6861 17.1086 12.8669 17.3166 11.9989 17.3166L12 17.3177ZM23.1416 7.53661H14.8936C16.3537 8.48426 17.3182 10.1291 17.3182 12C17.3182 12.9201 17.0848 13.7849 16.6742 14.5394L16.6773 14.5416L11.2042 23.9735C11.4673 23.9904 11.7326 24 12.0011 24C18.6276 24 24 18.6272 24 12C24 10.4231 23.6955 8.91617 23.1416 7.53661Z" fill="white"/>
</g>
<defs>
<clipPath id="clip0_39_2038">
<rect width="24" height="24" fill="white"/>
</clipPath>
</defs>
</svg>
