<svg width="28" height="28" viewBox="0 0 28 28" fill="none" xmlns="http://www.w3.org/2000/svg">
<g clip-path="url(#clip0_86_195)">
<path d="M5.83398 15.1667C5.83398 16.2391 6.04522 17.3011 6.45563 18.2919C6.86605 19.2827 7.4676 20.183 8.22595 20.9414C8.98429 21.6997 9.88458 22.3013 10.8754 22.7117C11.8662 23.1221 12.9282 23.3333 14.0007 23.3333C15.0731 23.3333 16.1351 23.1221 17.1259 22.7117C18.1167 22.3013 19.017 21.6997 19.7754 20.9414C20.5337 20.183 21.1353 19.2827 21.5457 18.2919C21.9561 17.3011 22.1673 16.2391 22.1673 15.1667C22.1673 13.0007 21.3069 10.9235 19.7754 9.39196C18.2438 7.86041 16.1666 7 14.0007 7C11.8347 7 9.75749 7.86041 8.22595 9.39196C6.6944 10.9235 5.83398 13.0007 5.83398 15.1667Z" stroke="#031B4E" stroke-width="1.5" stroke-linecap="round" stroke-linejoin="round"/>
<path d="M8.16732 4.66675L4.95898 7.00008" stroke="#031B4E" stroke-width="1.5" stroke-linecap="round" stroke-linejoin="round"/>
<path d="M19.834 4.66675L23.0423 7.00008" stroke="#031B4E" stroke-width="1.5" stroke-linecap="round" stroke-linejoin="round"/>
<path d="M9.33398 15.1667H10.5007L12.834 18.6667L15.1673 11.6667L17.5007 15.1667H18.6673" stroke="#3669E9" stroke-width="1.5" stroke-linecap="round" stroke-linejoin="round"/>
</g>
<defs>
<clipPath id="clip0_86_195">
<rect width="28" height="28" fill="white"/>
</clipPath>
</defs>
</svg>
