<svg width="29" height="28" viewBox="0 0 29 28" fill="none" xmlns="http://www.w3.org/2000/svg">
<g clip-path="url(#clip0_86_188)">
<path d="M3.83301 10.5C3.83301 10.1906 3.95592 9.89388 4.17472 9.67508C4.39351 9.45629 4.69026 9.33337 4.99967 9.33337H23.6663C23.9758 9.33337 24.2725 9.45629 24.4913 9.67508C24.7101 9.89388 24.833 10.1906 24.833 10.5V12.8334C24.833 13.1428 24.7101 13.4395 24.4913 13.6583C24.2725 13.8771 23.9758 14 23.6663 14H4.99967C4.69026 14 4.39351 13.8771 4.17472 13.6583C3.95592 13.4395 3.83301 13.1428 3.83301 12.8334V10.5Z" stroke="#031B4E" stroke-width="1.5" stroke-linecap="round" stroke-linejoin="round"/>
<path d="M14.333 9.33337V24.5" stroke="#3669E9" stroke-width="1.5" stroke-linecap="round" stroke-linejoin="round"/>
<path d="M22.4994 14V22.1667C22.4994 22.7855 22.2535 23.379 21.8159 23.8166C21.3783 24.2542 20.7849 24.5 20.166 24.5H8.49935C7.88051 24.5 7.28702 24.2542 6.84943 23.8166C6.41185 23.379 6.16602 22.7855 6.16602 22.1667V14" stroke="#031B4E" stroke-width="1.5" stroke-linecap="round" stroke-linejoin="round"/>
<path d="M9.08268 9.33335C8.30913 9.33335 7.56727 9.02606 7.02029 8.47908C6.47331 7.9321 6.16602 7.19024 6.16602 6.41669C6.16602 5.64314 6.47331 4.90127 7.02029 4.35429C7.56727 3.80731 8.30913 3.50002 9.08268 3.50002C10.2081 3.48041 11.311 4.02649 12.2475 5.06704C13.184 6.10759 13.9107 7.59433 14.3327 9.33335C14.7547 7.59433 15.4813 6.10759 16.4178 5.06704C17.3543 4.02649 18.4572 3.48041 19.5827 3.50002C20.3562 3.50002 21.0981 3.80731 21.6451 4.35429C22.1921 4.90127 22.4994 5.64314 22.4994 6.41669C22.4994 7.19024 22.1921 7.9321 21.6451 8.47908C21.0981 9.02606 20.3562 9.33335 19.5827 9.33335" stroke="#3669E9" stroke-width="1.5" stroke-linecap="round" stroke-linejoin="round"/>
</g>
<defs>
<clipPath id="clip0_86_188">
<rect width="28" height="28" fill="white" transform="translate(0.333008)"/>
</clipPath>
</defs>
</svg>
