<svg width="28" height="28" viewBox="0 0 28 28" fill="none" xmlns="http://www.w3.org/2000/svg">
<path d="M4.6665 7C4.6665 8.93317 8.8455 10.5 13.9998 10.5C19.1542 10.5 23.3332 8.93317 23.3332 7C23.3332 5.06683 19.1542 3.5 13.9998 3.5C8.8455 3.5 4.6665 5.06683 4.6665 7Z" stroke="#031B4E" stroke-width="1.5" stroke-linecap="round" stroke-linejoin="round"/>
<path d="M4.6665 7V14C4.6665 15.6683 7.7815 17.0648 11.95 17.4148M23.3332 12.25V7" stroke="#031B4E" stroke-width="1.5" stroke-linecap="round" stroke-linejoin="round"/>
<path d="M4.6665 14V21C4.6665 22.8037 8.3065 24.29 12.9825 24.479M20.7665 24.2865L18.2325 25.6142C18.1573 25.6533 18.0727 25.6708 17.9882 25.6646C17.9036 25.6585 17.8224 25.6289 17.7537 25.5793C17.685 25.5297 17.6314 25.4619 17.5989 25.3836C17.5664 25.3053 17.5564 25.2195 17.5698 25.1358L18.054 22.323L16.0042 20.3315C15.943 20.2724 15.8997 20.1972 15.8792 20.1146C15.8586 20.032 15.8618 19.9453 15.8882 19.8644C15.9146 19.7835 15.9632 19.7117 16.0285 19.6571C16.0937 19.6025 16.173 19.5673 16.2573 19.5557L19.09 19.145L20.357 16.5865C20.3949 16.5103 20.4533 16.4462 20.5256 16.4014C20.598 16.3565 20.6814 16.3328 20.7665 16.3328C20.8516 16.3328 20.935 16.3565 21.0074 16.4014C21.0797 16.4462 21.1381 16.5103 21.176 16.5865L22.443 19.145L25.2757 19.5557C25.3597 19.5678 25.4387 19.6031 25.5037 19.6578C25.5687 19.7124 25.6171 19.7842 25.6434 19.8649C25.6698 19.9456 25.673 20.0321 25.6528 20.1146C25.6325 20.197 25.5896 20.2722 25.5288 20.3315L23.479 22.323L23.962 25.1347C23.9765 25.2185 23.9672 25.3047 23.9351 25.3836C23.9031 25.4624 23.8496 25.5306 23.7807 25.5806C23.7118 25.6305 23.6303 25.6601 23.5454 25.6661C23.4605 25.672 23.3757 25.654 23.3005 25.6142L20.7665 24.2865Z" stroke="#3669E9" stroke-width="1.5" stroke-linecap="round" stroke-linejoin="round"/>
</svg>
