<svg width="24" height="24" viewBox="0 0 24 24" fill="none" xmlns="http://www.w3.org/2000/svg">
<path d="M19.75 23.0002H3.25C2.65326 23.0002 2.08097 22.7631 1.65901 22.3412C1.23705 21.9192 1 21.3469 1 20.7502V4.25018C1 3.65345 1.23705 3.08115 1.65901 2.65919C2.08097 2.23724 2.65326 2.00018 3.25 2.00018H19.75C20.3467 2.00018 20.919 2.23724 21.341 2.65919C21.7629 3.08115 22 3.65345 22 4.25018V20.7502C22 21.3469 21.7629 21.9192 21.341 22.3412C20.919 22.7631 20.3467 23.0002 19.75 23.0002ZM3.25 3.50018C3.05109 3.50018 2.86032 3.5792 2.71967 3.71985C2.57902 3.86051 2.5 4.05127 2.5 4.25018V20.7502C2.5 20.9491 2.57902 21.1399 2.71967 21.2805C2.86032 21.4212 3.05109 21.5002 3.25 21.5002H19.75C19.9489 21.5002 20.1397 21.4212 20.2803 21.2805C20.421 21.1399 20.5 20.9491 20.5 20.7502V4.25018C20.5 4.05127 20.421 3.86051 20.2803 3.71985C20.1397 3.5792 19.9489 3.50018 19.75 3.50018H3.25Z" fill="#031B4E"/>
<path d="M16.9702 7.00012V7.88376L15.936 8.08667C15.8313 8.10848 15.7527 8.1543 15.7004 8.22412C15.648 8.29394 15.6218 8.37903 15.6218 8.47939V15.7972C15.6218 15.9063 15.648 15.9936 15.7004 16.059C15.7527 16.1201 15.8313 16.1616 15.936 16.1834L16.9702 16.3732V17.2241H12.3818V16.3732L13.1673 16.1834C13.2676 16.1572 13.344 16.1136 13.3964 16.0525C13.4531 15.9914 13.4815 15.9063 13.4815 15.7972V12.5507H9.48873V15.8038C9.48873 15.9085 9.51273 15.9936 9.56073 16.059C9.61309 16.1201 9.69164 16.1616 9.79636 16.1834L10.6604 16.3732V17.2241H6V16.3732L7.02764 16.1834C7.13236 16.1616 7.21091 16.1201 7.26327 16.059C7.31564 15.9936 7.34182 15.9063 7.34182 15.7972V8.47939C7.34182 8.3703 7.31564 8.28303 7.26327 8.21758C7.21091 8.15212 7.13455 8.10848 7.03418 8.08667L6 7.88376V7.00012H10.6604V7.88376L9.78982 8.08667C9.68945 8.10848 9.61309 8.15212 9.56073 8.21758C9.51273 8.27867 9.48873 8.36376 9.48873 8.47285V11.4772H13.4815V8.47285C13.4815 8.37249 13.4531 8.28958 13.3964 8.22412C13.344 8.15867 13.2698 8.11285 13.1738 8.08667L12.3753 7.88376V7.00012H16.9702Z" fill="#638FFF"/>
</svg>
