<svg width="21" height="21" viewBox="0 0 21 21" fill="none" xmlns="http://www.w3.org/2000/svg">
<path d="M20.7801 15.9697L16.5239 11.7135C16.1192 11.3107 15.5767 11.0763 15.006 11.0578C14.4353 11.0393 13.8788 11.238 13.4489 11.6137L11.3489 13.4557L8.29037 10.8345C7.85894 10.4677 7.30553 10.2763 6.73968 10.2981C6.17383 10.3199 5.63679 10.5533 5.23487 10.9522L0.21737 15.9697C0.0807512 16.1112 0.00515548 16.3006 0.00686429 16.4973C0.0085731 16.6939 0.0874498 16.882 0.226506 17.0211C0.365562 17.1601 0.553671 17.239 0.750319 17.2407C0.946966 17.2424 1.13642 17.1668 1.27787 17.0302L6.29537 12.0127C6.4289 11.879 6.60799 11.8006 6.79683 11.7932C6.98566 11.7859 7.17032 11.8501 7.31387 11.973L13.2599 17.073C13.334 17.1414 13.4211 17.1942 13.5161 17.2282C13.611 17.2622 13.7119 17.2767 13.8126 17.2708C13.9133 17.2649 14.0118 17.2388 14.1021 17.194C14.1925 17.1491 14.2729 17.0866 14.3385 17.0099C14.4041 16.9333 14.4536 16.8443 14.484 16.7481C14.5144 16.6519 14.525 16.5506 14.5154 16.4502C14.5057 16.3498 14.4759 16.2523 14.4277 16.1637C14.3795 16.0751 14.3139 15.9972 14.2349 15.9345L12.4986 14.4457L14.4351 12.7447C14.5782 12.619 14.7639 12.5524 14.9543 12.5585C15.1447 12.5647 15.3256 12.643 15.4604 12.7777L19.7166 17.034C19.8581 17.1706 20.0475 17.2462 20.2442 17.2445C20.4408 17.2428 20.6289 17.1639 20.768 17.0248C20.907 16.8858 20.9859 16.6977 20.9876 16.501C20.9893 16.3044 20.9137 16.1149 20.7771 15.9735L20.7801 15.9697Z" fill="#638FFF"/>
<path d="M12 9.75C12.5933 9.75 13.1734 9.57405 13.6667 9.24441C14.1601 8.91477 14.5446 8.44623 14.7716 7.89805C14.9987 7.34987 15.0581 6.74667 14.9424 6.16473C14.8266 5.58279 14.5409 5.04824 14.1213 4.62868C13.7018 4.20912 13.1672 3.9234 12.5853 3.80765C12.0033 3.69189 11.4001 3.7513 10.852 3.97836C10.3038 4.20543 9.83524 4.58994 9.50559 5.08329C9.17595 5.57664 9 6.15666 9 6.75C9 7.54565 9.31607 8.30871 9.87868 8.87132C10.4413 9.43393 11.2044 9.75 12 9.75ZM12 5.25C12.2967 5.25 12.5867 5.33797 12.8334 5.5028C13.08 5.66762 13.2723 5.90189 13.3858 6.17598C13.4994 6.45007 13.5291 6.75167 13.4712 7.04264C13.4133 7.33361 13.2704 7.60088 13.0607 7.81066C12.8509 8.02044 12.5836 8.1633 12.2926 8.22118C12.0017 8.27906 11.7001 8.24935 11.426 8.13582C11.1519 8.02229 10.9176 7.83003 10.7528 7.58336C10.588 7.33668 10.5 7.04667 10.5 6.75C10.5 6.35218 10.658 5.97065 10.9393 5.68934C11.2206 5.40804 11.6022 5.25 12 5.25Z" fill="#638FFF"/>
<path d="M18.75 21H2.25C1.65326 21 1.08097 20.7629 0.65901 20.341C0.237053 19.919 0 19.3467 0 18.75V2.25C0 1.65326 0.237053 1.08097 0.65901 0.65901C1.08097 0.237053 1.65326 0 2.25 0H18.75C19.3467 0 19.919 0.237053 20.341 0.65901C20.7629 1.08097 21 1.65326 21 2.25V18.75C21 19.3467 20.7629 19.919 20.341 20.341C19.919 20.7629 19.3467 21 18.75 21ZM2.25 1.5C2.05109 1.5 1.86032 1.57902 1.71967 1.71967C1.57902 1.86032 1.5 2.05109 1.5 2.25V18.75C1.5 18.9489 1.57902 19.1397 1.71967 19.2803C1.86032 19.421 2.05109 19.5 2.25 19.5H18.75C18.9489 19.5 19.1397 19.421 19.2803 19.2803C19.421 19.1397 19.5 18.9489 19.5 18.75V2.25C19.5 2.05109 19.421 1.86032 19.2803 1.71967C19.1397 1.57902 18.9489 1.5 18.75 1.5H2.25Z" fill="#031B4E"/>
</svg>
