<svg width="20" height="21" viewBox="0 0 20 21" fill="none" xmlns="http://www.w3.org/2000/svg">
<path d="M18 15H13.5V10.5C13.5 10.1022 13.342 9.72064 13.0607 9.43934C12.7794 9.15804 12.3978 9 12 9H7.5C7.10218 9 6.72064 9.15804 6.43934 9.43934C6.15804 9.72064 6 10.1022 6 10.5V12.75H1.5C1.10218 12.75 0.720644 12.908 0.43934 13.1893C0.158035 13.4706 0 13.8522 0 14.25V19.5C0 19.8978 0.158035 20.2794 0.43934 20.5607C0.720644 20.842 1.10218 21 1.5 21H18C18.3978 21 18.7794 20.842 19.0607 20.5607C19.342 20.2794 19.5 19.8978 19.5 19.5V16.5C19.5 16.1022 19.342 15.7206 19.0607 15.4393C18.7794 15.158 18.3978 15 18 15ZM1.5 14.25H6V19.5H1.5V14.25ZM7.5 10.5H12V19.5H7.5V10.5ZM13.5 19.5V16.5H18V19.5H13.5Z" fill="#031B4E"/>
<path d="M8.22979 7.50002C7.96822 7.49848 7.71345 7.41652 7.50004 7.26527C7.27119 7.10395 7.09979 6.87381 7.01076 6.60835C6.92173 6.34289 6.91973 6.05595 7.00504 5.78927L7.30504 4.81877L6.52129 4.22477C6.30108 4.05709 6.13916 3.82444 6.05841 3.5597C5.97766 3.29497 5.98216 3.01155 6.07129 2.74952C6.15373 2.49128 6.31633 2.26603 6.53549 2.10648C6.75465 1.94693 7.01896 1.86139 7.29004 1.86227H8.22679L8.52154 0.914269C8.60074 0.650018 8.76304 0.41835 8.98435 0.253651C9.20566 0.0889512 9.47417 0 9.75004 0C10.0259 0 10.2944 0.0889512 10.5157 0.253651C10.737 0.41835 10.8993 0.650018 10.9785 0.914269L11.2733 1.86227H12.21C12.4812 1.86123 12.7457 1.9467 12.965 2.10626C13.1843 2.26582 13.3471 2.49115 13.4295 2.74952C13.5188 3.01165 13.5234 3.29523 13.4427 3.56012C13.3619 3.82501 13.1999 4.05779 12.9795 4.22552L12.1965 4.81877L12.4965 5.79377C12.5805 6.06 12.5777 6.34604 12.4884 6.61055C12.3992 6.87506 12.2281 7.10434 12 7.26527C11.7805 7.42307 11.5158 7.50564 11.2454 7.50064C10.9751 7.49564 10.7136 7.40334 10.5 7.23752L9.75004 6.66977L9.00004 7.23827C8.77894 7.40763 8.50829 7.4996 8.22979 7.50002ZM9.75004 4.97927C9.91231 4.97927 10.0702 5.0319 10.2 5.12927L10.8795 5.64377L10.6073 4.76252C10.5613 4.61518 10.562 4.45725 10.6091 4.31027C10.6562 4.1633 10.7475 4.03444 10.8705 3.94127L11.634 3.36227H10.725C10.5653 3.36244 10.4097 3.31161 10.2809 3.21717C10.152 3.12274 10.0567 2.98965 10.0088 2.83727L9.75004 2.01527L9.49429 2.83577C9.44637 2.98815 9.35105 3.12124 9.22222 3.21567C9.09339 3.31011 8.93777 3.36094 8.77804 3.36077H7.86604L8.62954 3.93977C8.75259 4.03294 8.8439 4.1618 8.89101 4.30877C8.93812 4.45575 8.93874 4.61368 8.89279 4.76102L8.61754 5.64527L9.29704 5.13077C9.42749 5.03225 9.58656 4.97905 9.75004 4.97927Z" fill="#638FFF"/>
</svg>
