<svg width="24" height="24" viewBox="0 0 24 24" fill="none" xmlns="http://www.w3.org/2000/svg">
<path d="M20.4846 3.51524C19.6407 2.67139 18.4962 2.19733 17.3028 2.19733C16.1093 2.19733 14.9648 2.67139 14.1209 3.51524L10.4091 7.22699C10.3375 7.29618 10.2804 7.37893 10.2411 7.47044C10.2018 7.56194 10.1811 7.66036 10.1802 7.75994C10.1793 7.85952 10.1983 7.95828 10.236 8.05046C10.2737 8.14263 10.3294 8.22637 10.3998 8.29679C10.4703 8.36721 10.554 8.4229 10.6462 8.46061C10.7383 8.49832 10.8371 8.51729 10.9367 8.51643C11.0363 8.51556 11.1347 8.49487 11.2262 8.45557C11.3177 8.41626 11.4005 8.35912 11.4696 8.28749L15.1814 4.57499C15.46 4.29636 15.7907 4.07533 16.1547 3.92451C16.5187 3.7737 16.9089 3.69606 17.3029 3.69602C17.6969 3.69599 18.087 3.77356 18.4511 3.92431C18.8151 4.07506 19.1459 4.29603 19.4245 4.57462C19.7032 4.8532 19.9242 5.18393 20.075 5.54794C20.2258 5.91194 20.3035 6.30209 20.3035 6.6961C20.3035 7.09011 20.2259 7.48027 20.0752 7.8443C19.9244 8.20833 19.7035 8.53911 19.4249 8.81774L15.7131 12.5302C15.6415 12.5994 15.5844 12.6822 15.5451 12.7737C15.5058 12.8652 15.4851 12.9636 15.4842 13.0632C15.4833 13.1628 15.5023 13.2615 15.54 13.3537C15.5777 13.4459 15.6334 13.5296 15.7038 13.6C15.7743 13.6705 15.858 13.7261 15.9502 13.7639C16.0423 13.8016 16.1411 13.8205 16.2407 13.8197C16.3403 13.8188 16.4387 13.7981 16.5302 13.7588C16.6217 13.7195 16.7045 13.6624 16.7736 13.5907L20.4854 9.87824C21.329 9.03437 21.8029 7.88998 21.8029 6.69674C21.8029 5.5035 21.329 4.35912 20.4854 3.51524H20.4846Z" fill="#031B4E"/>
<path d="M12.5304 15.7125L8.81862 19.425C8.54004 19.7036 8.20931 19.9247 7.8453 20.0755C7.4813 20.2263 7.09115 20.3039 6.69714 20.304C5.9014 20.3041 5.13822 19.988 4.5755 19.4254C4.01278 18.8628 3.6966 18.0996 3.69653 17.3039C3.6965 16.9099 3.77407 16.5197 3.92482 16.1557C4.07557 15.7917 4.29654 15.4609 4.57512 15.1823L8.28687 11.4698C8.35851 11.4006 8.41564 11.3178 8.45495 11.2263C8.49426 11.1348 8.51495 11.0364 8.51581 10.9368C8.51668 10.8372 8.4977 10.7385 8.45999 10.6463C8.42228 10.5541 8.36659 10.4704 8.29617 10.4C8.22575 10.3295 8.14201 10.2739 8.04984 10.2361C7.95767 10.1984 7.85891 10.1795 7.75932 10.1803C7.65974 10.1812 7.56132 10.2019 7.46982 10.2412C7.37832 10.2805 7.29556 10.3376 7.22637 10.4093L3.51462 14.1218C3.08747 14.5375 2.74718 15.034 2.5135 15.5824C2.27983 16.1308 2.15743 16.7201 2.15342 17.3162C2.14941 17.9123 2.26387 18.5032 2.49014 19.0547C2.71642 19.6061 3.05001 20.1071 3.47153 20.5286C3.89305 20.9501 4.39411 21.2836 4.94561 21.5098C5.4971 21.736 6.08805 21.8504 6.68412 21.8463C7.28019 21.8423 7.86952 21.7198 8.41787 21.4861C8.96621 21.2523 9.46266 20.912 9.87837 20.4848L13.5901 16.773C13.6618 16.7038 13.7189 16.6211 13.7582 16.5296C13.7975 16.4381 13.8182 16.3396 13.8191 16.2401C13.8199 16.1405 13.801 16.0417 13.7632 15.9495C13.7255 15.8574 13.6698 15.7736 13.5994 15.7032C13.529 15.6328 13.4453 15.5771 13.3531 15.5394C13.2609 15.5017 13.1622 15.4827 13.0626 15.4836C12.963 15.4844 12.8646 15.5051 12.7731 15.5444C12.6816 15.5837 12.5988 15.6409 12.5296 15.7125H12.5304Z" fill="#031B4E"/>
<path d="M11.9316 12.0679C11.7529 11.8892 11.5905 11.6973 11.4453 11.4944L11.4853 11.4544C11.6903 11.601 11.882 11.7637 12.0589 11.9405C12.2368 12.1183 12.3997 12.3104 12.546 12.5147L12.5059 12.5548C12.3027 12.4094 12.1105 12.2468 11.9316 12.0679Z" fill="#638FFF" stroke="#638FFF" stroke-width="10.6667"/>
</svg>
