<svg width="40" height="40" viewBox="0 0 40 40" fill="none" xmlns="http://www.w3.org/2000/svg">
<rect width="40" height="40" rx="20" fill="white"/>
<rect x="0.5" y="0.5" width="39" height="39" rx="19.5" stroke="#031B4E" stroke-opacity="0.1"/>
<g clip-path="url(#clip0_39_2056)">
<path d="M28 18.0001C28 13.5801 24.42 10.0001 20 10.0001C15.58 10.0001 12 13.5801 12 18.0001C12 20.0301 12.76 21.8701 14 23.2801V31.0001L20 29.0001L26 31.0001V23.2801C27.24 21.8701 28 20.0301 28 18.0001ZM20 12.0001C23.31 12.0001 26 14.6901 26 18.0001C26 21.3101 23.31 24.0001 20 24.0001C16.69 24.0001 14 21.3101 14 18.0001C14 14.6901 16.69 12.0001 20 12.0001ZM20 27.0001L16 28.0201V24.9201C17.18 25.6001 18.54 26.0001 20 26.0001C21.46 26.0001 22.82 25.6001 24 24.9201V28.0201L20 27.0001ZM17 18.0001C17 16.3401 18.34 15.0001 20 15.0001C21.66 15.0001 23 16.3401 23 18.0001C23 19.6601 21.66 21.0001 20 21.0001C18.34 21.0001 17 19.6601 17 18.0001Z" fill="#30CFB2"/>
</g>
<defs>
<clipPath id="clip0_39_2056">
<rect width="24" height="24" fill="white" transform="translate(8 8)"/>
</clipPath>
</defs>
</svg>
