<svg width="28" height="29" viewBox="0 0 28 29" fill="none" xmlns="http://www.w3.org/2000/svg">
<rect y="0.5" width="28" height="28" rx="14" fill="#3669E9"/>
<path fill-rule="evenodd" clip-rule="evenodd" d="M20.0302 10.47C20.1706 10.6106 20.2495 10.8013 20.2495 11C20.2495 11.1988 20.1706 11.3894 20.0302 11.53L13.0302 18.53C12.8895 18.6705 12.6989 18.7494 12.5002 18.7494C12.3014 18.7494 12.1108 18.6705 11.9702 18.53L7.97015 14.53C7.89647 14.4613 7.83736 14.3785 7.79637 14.2865C7.75538 14.1946 7.73334 14.0952 7.73156 13.9945C7.72979 13.8938 7.74831 13.7938 7.78603 13.7004C7.82375 13.607 7.8799 13.5222 7.95112 13.451C8.02233 13.3798 8.10717 13.3236 8.20056 13.2859C8.29394 13.2482 8.39397 13.2296 8.49468 13.2314C8.59538 13.2332 8.69469 13.2552 8.78669 13.2962C8.87869 13.3372 8.96149 13.3963 9.03015 13.47L12.5002 16.94L18.9702 10.47C19.1108 10.3296 19.3014 10.2507 19.5002 10.2507C19.6989 10.2507 19.8895 10.3296 20.0302 10.47Z" fill="white"/>
</svg>
