<svg width="21" height="20" viewBox="0 0 21 20" fill="none" xmlns="http://www.w3.org/2000/svg">
<path d="M9.5 17H3C2.46957 17 1.96086 16.7893 1.58579 16.4142C1.21071 16.0391 1 15.5304 1 15V3C1 2.46957 1.21071 1.96086 1.58579 1.58579C1.96086 1.21071 2.46957 1 3 1H17C17.5304 1 18.0391 1.21071 18.4142 1.58579C18.7893 1.96086 19 2.46957 19 3V8.5M7 14H9" stroke="#031B4E" stroke-width="1.33333" stroke-linecap="round" stroke-linejoin="round"/>
<path d="M18.2 17.2L20 19M13 15C13 15.7956 13.3161 16.5587 13.8787 17.1213C14.4413 17.6839 15.2044 18 16 18C16.7956 18 17.5587 17.6839 18.1213 17.1213C18.6839 16.5587 19 15.7956 19 15C19 14.2044 18.6839 13.4413 18.1213 12.8787C17.5587 12.3161 16.7956 12 16 12C15.2044 12 14.4413 12.3161 13.8787 12.8787C13.3161 13.4413 13 14.2044 13 15Z" stroke="#638FFF" stroke-width="1.33333" stroke-linecap="round" stroke-linejoin="round"/>
</svg>
