<svg width="18" height="18" viewBox="0 0 18 18" fill="none" xmlns="http://www.w3.org/2000/svg">
<path d="M1 5H17M5 1V5M1 2C1 1.73478 1.10536 1.48043 1.29289 1.29289C1.48043 1.10536 1.73478 1 2 1H16C16.2652 1 16.5196 1.10536 16.7071 1.29289C16.8946 1.48043 17 1.73478 17 2V16C17 16.2652 16.8946 16.5196 16.7071 16.7071C16.5196 16.8946 16.2652 17 16 17H2C1.73478 17 1.48043 16.8946 1.29289 16.7071C1.10536 16.5196 1 16.2652 1 16V2Z" stroke="#031B4E" stroke-width="1.33333" stroke-linecap="round" stroke-linejoin="round"/>
<path d="M5.10693 11.0595L7.90141 13.854L13.4904 8.26501" stroke="#638FFF" stroke-width="1.33333" stroke-linecap="round" stroke-linejoin="round"/>
</svg>
