<svg width="22" height="22" viewBox="0 0 22 22" fill="none" xmlns="http://www.w3.org/2000/svg">
<path d="M20.7501 21.5001C20.5512 21.5 20.3604 21.421 20.2198 21.2803L14.9698 16.0303C14.8332 15.8889 14.7576 15.6994 14.7593 15.5028C14.761 15.3061 14.8399 15.118 14.9789 14.9789C15.118 14.8399 15.3061 14.761 15.5028 14.7593C15.6994 14.7576 15.8889 14.8332 16.0303 14.9698L21.2803 20.2198C21.3852 20.3247 21.4566 20.4583 21.4855 20.6038C21.5144 20.7493 21.4996 20.9 21.4428 21.0371C21.3861 21.1741 21.29 21.2912 21.1667 21.3736C21.0433 21.456 20.8984 21.5 20.7501 21.5001Z" fill="#031B4E"/>
<path d="M9.5 18.5C7.71997 18.5 5.97991 17.9722 4.49987 16.9832C3.01983 15.9943 1.86628 14.5887 1.18509 12.9442C0.5039 11.2996 0.32567 9.49002 0.672937 7.74419C1.0202 5.99836 1.87737 4.39472 3.13604 3.13604C4.39472 1.87737 5.99836 1.0202 7.74419 0.672937C9.49002 0.32567 11.2996 0.5039 12.9442 1.18509C14.5887 1.86628 15.9943 3.01983 16.9832 4.49987C17.9722 5.97991 18.5 7.71997 18.5 9.5C18.4974 11.8862 17.5484 14.1738 15.8611 15.8611C14.1738 17.5484 11.8862 18.4974 9.5 18.5ZM9.5 2C8.01664 2 6.5666 2.43987 5.33323 3.26398C4.09986 4.08809 3.13856 5.25943 2.57091 6.62988C2.00325 8.00032 1.85473 9.50832 2.14411 10.9632C2.4335 12.418 3.14781 13.7544 4.1967 14.8033C5.2456 15.8522 6.58197 16.5665 8.03683 16.8559C9.49168 17.1453 10.9997 16.9968 12.3701 16.4291C13.7406 15.8614 14.9119 14.9001 15.736 13.6668C16.5601 12.4334 17 10.9834 17 9.5C16.9978 7.51155 16.2069 5.60516 14.8009 4.19911C13.3948 2.79307 11.4885 2.00219 9.5 2Z" fill="#031B4E"/>
<path d="M8.43459 12.0145C8.25062 12.015 8.07298 11.9474 7.93584 11.8248L6.25134 10.3248C6.10275 10.1925 6.0128 10.0066 6.00126 9.80799C5.98973 9.60939 6.05756 9.41434 6.18984 9.26575C6.32212 9.11716 6.508 9.02721 6.7066 9.01568C6.9052 9.00414 7.10025 9.07197 7.24884 9.20425L8.38809 10.2183L11.7033 6.7515C11.7699 6.67666 11.8508 6.61592 11.9412 6.57286C12.0317 6.52979 12.1298 6.50528 12.2299 6.50076C12.3299 6.49625 12.4299 6.51182 12.5238 6.54657C12.6178 6.58131 12.7038 6.63452 12.7769 6.70306C12.8499 6.77159 12.9085 6.85407 12.9492 6.94561C12.9898 7.03716 13.0117 7.13592 13.0136 7.23607C13.0154 7.33622 12.9972 7.43572 12.96 7.52871C12.9228 7.62171 12.8673 7.7063 12.7968 7.7775L8.98134 11.7775C8.9114 11.8525 8.82675 11.9122 8.73267 11.953C8.6386 11.9938 8.53712 12.0147 8.43459 12.0145Z" fill="#638FFF"/>
</svg>
