<svg width="21" height="20" viewBox="0 0 21 20" fill="none" xmlns="http://www.w3.org/2000/svg">
<path d="M1.33301 5.33329H19.9997M5.99967 0.666626V5.33329M1.33301 1.83329C1.33301 1.52387 1.45592 1.22713 1.67472 1.00833C1.89351 0.789543 2.19026 0.666626 2.49967 0.666626H18.833C19.1424 0.666626 19.4392 0.789543 19.658 1.00833C19.8768 1.22713 19.9997 1.52387 19.9997 1.83329V18.1666C19.9997 18.476 19.8768 18.7728 19.658 18.9916C19.4392 19.2104 19.1424 19.3333 18.833 19.3333H2.49967C2.19026 19.3333 1.89351 19.2104 1.67472 18.9916C1.45592 18.7728 1.33301 18.476 1.33301 18.1666V1.83329Z" stroke="#031B4E" stroke-width="1.2" stroke-linecap="round" stroke-linejoin="round"/>
<path d="M6.12451 12.4028L9.38473 15.663L15.9052 9.14258" stroke="#3669E9" stroke-width="1.2" stroke-linecap="round" stroke-linejoin="round"/>
</svg>
