<svg width="22" height="19" viewBox="0 0 22 19" fill="none" xmlns="http://www.w3.org/2000/svg">
<path d="M20.75 17.5H9.5C9.30109 17.5 9.11032 17.421 8.96967 17.2803C8.82902 17.1397 8.75 16.9489 8.75 16.75C8.75 16.5511 8.82902 16.3603 8.96967 16.2197C9.11032 16.079 9.30109 16 9.5 16H20.75C20.9489 16 21.1397 16.079 21.2803 16.2197C21.421 16.3603 21.5 16.5511 21.5 16.75C21.5 16.9489 21.421 17.1397 21.2803 17.2803C21.1397 17.421 20.9489 17.5 20.75 17.5Z" fill="#031B4E"/>
<path d="M20.75 10.75H9.5C9.30109 10.75 9.11032 10.671 8.96967 10.5303C8.82902 10.3897 8.75 10.1989 8.75 10C8.75 9.80109 8.82902 9.61032 8.96967 9.46967C9.11032 9.32902 9.30109 9.25 9.5 9.25H20.75C20.9489 9.25 21.1397 9.32902 21.2803 9.46967C21.421 9.61032 21.5 9.80109 21.5 10C21.5 10.1989 21.421 10.3897 21.2803 10.5303C21.1397 10.671 20.9489 10.75 20.75 10.75Z" fill="#031B4E"/>
<path d="M20.75 4H9.5C9.30109 4 9.11032 3.92098 8.96967 3.78033C8.82902 3.63968 8.75 3.44891 8.75 3.25C8.75 3.05109 8.82902 2.86032 8.96967 2.71967C9.11032 2.57902 9.30109 2.5 9.5 2.5H20.75C20.9489 2.5 21.1397 2.57902 21.2803 2.71967C21.421 2.86032 21.5 3.05109 21.5 3.25C21.5 3.44891 21.421 3.63968 21.2803 3.78033C21.1397 3.92098 20.9489 4 20.75 4Z" fill="#031B4E"/>
<path d="M2.93459 5.50001C2.75062 5.50046 2.57298 5.43288 2.43584 5.31026L0.751339 3.81026C0.602751 3.67798 0.512796 3.49209 0.501263 3.29349C0.489729 3.09489 0.557562 2.89984 0.689839 2.75126C0.822116 2.60267 1.008 2.51271 1.2066 2.50118C1.4052 2.48965 1.60025 2.55748 1.74884 2.68976L2.88809 3.70376L5.20334 1.23701C5.26992 1.16217 5.35081 1.10142 5.44124 1.05836C5.53168 1.0153 5.62982 0.990782 5.72989 0.986267C5.82995 0.981751 5.9299 0.997325 6.02385 1.03207C6.11779 1.06681 6.20383 1.12002 6.27688 1.18856C6.34992 1.2571 6.4085 1.33957 6.44915 1.43112C6.4898 1.52266 6.5117 1.62142 6.51357 1.72157C6.51543 1.82172 6.49721 1.92123 6.45999 2.01422C6.42276 2.10721 6.36729 2.1918 6.29684 2.26301L3.48134 5.26301C3.4114 5.33799 3.32675 5.39773 3.23267 5.43851C3.1386 5.47929 3.03712 5.50022 2.93459 5.50001V5.50001Z" fill="#638FFF"/>
<path d="M2.93459 12.25C2.75062 12.2505 2.57298 12.1829 2.43584 12.0603L0.751339 10.5603C0.602751 10.428 0.512796 10.2421 0.501263 10.0435C0.489729 9.84489 0.557562 9.64984 0.689839 9.50126C0.822116 9.35267 1.008 9.26271 1.2066 9.25118C1.4052 9.23965 1.60025 9.30748 1.74884 9.43976L2.88809 10.4538L5.20334 7.98701C5.26992 7.91217 5.35081 7.85142 5.44124 7.80836C5.53168 7.7653 5.62982 7.74078 5.72989 7.73627C5.82995 7.73175 5.9299 7.74733 6.02385 7.78207C6.11779 7.81681 6.20383 7.87002 6.27688 7.93856C6.34992 8.0071 6.4085 8.08957 6.44915 8.18112C6.4898 8.27266 6.5117 8.37142 6.51357 8.47157C6.51543 8.57172 6.49721 8.67123 6.45999 8.76422C6.42276 8.85721 6.36729 8.9418 6.29684 9.01301L3.48134 12.013C3.4114 12.088 3.32675 12.1477 3.23267 12.1885C3.1386 12.2293 3.03712 12.2502 2.93459 12.25V12.25Z" fill="#638FFF"/>
<path d="M2.93459 19C2.75062 19.0004 2.57298 18.9329 2.43584 18.8102L0.751339 17.3102C0.602751 17.178 0.512796 16.9921 0.501263 16.7935C0.489729 16.5949 0.557562 16.3998 0.689839 16.2512C0.822116 16.1027 1.008 16.0127 1.2066 16.0012C1.4052 15.9896 1.60025 16.0575 1.74884 16.1897L2.88809 17.2037L5.20334 14.737C5.34082 14.598 5.52712 14.5183 5.72255 14.5146C5.91799 14.511 6.10712 14.5838 6.24966 14.7176C6.39221 14.8513 6.47691 15.0354 6.48572 15.2307C6.49453 15.426 6.42676 15.617 6.29684 15.763L3.48134 18.763C3.4114 18.838 3.32675 18.8977 3.23267 18.9385C3.1386 18.9793 3.03712 19.0002 2.93459 19V19Z" fill="#638FFF"/>
</svg>
