<svg width="22" height="18" viewBox="0 0 22 18" fill="none" xmlns="http://www.w3.org/2000/svg">
<path d="M4 17L6.413 14.587M6.413 14.587C6.82568 14.9997 7.3156 15.327 7.85479 15.5504C8.39398 15.7737 8.97188 15.8887 9.5555 15.8887C10.1391 15.8887 10.717 15.7737 11.2562 15.5504C11.7954 15.327 12.2853 14.9997 12.698 14.587C13.1107 14.1743 13.438 13.6844 13.6614 13.1452C13.8847 12.606 13.9997 12.0281 13.9997 11.4445C13.9997 10.8609 13.8847 10.283 13.6614 9.74379C13.438 9.2046 13.1107 8.71468 12.698 8.302C11.8646 7.46856 10.7342 7.00034 9.5555 7.00034C8.37683 7.00034 7.24644 7.46856 6.413 8.302C5.57956 9.13544 5.11133 10.2658 5.11133 11.4445C5.11133 12.6232 5.57956 13.7536 6.413 14.587Z" stroke="#638FFF" stroke-width="1.33333" stroke-linecap="round" stroke-linejoin="round"/>
<path d="M2.00001 12.188C1.3431 11.0563 0.998037 9.77057 1.00001 8.462C1.00001 4.341 4.35801 1 8.50001 1H13.5C17.642 1 21 4.341 21 8.462C21 11.712 18.913 14.476 16 15.5" stroke="#031B4E" stroke-width="1.33333" stroke-linecap="round" stroke-linejoin="round"/>
</svg>
