<svg width="20" height="20" viewBox="0 0 20 20" fill="none" xmlns="http://www.w3.org/2000/svg">
<path d="M10 5V9" stroke="#031B4E" stroke-width="1.33333" stroke-linecap="round" stroke-linejoin="round"/>
<path d="M4.6001 15.7L7.4001 13.7" stroke="#031B4E" stroke-width="1.33333" stroke-linecap="round" stroke-linejoin="round"/>
<path d="M15.1999 15.6998L12.4961 13.8291" stroke="#031B4E" stroke-width="1.33333" stroke-linecap="round" stroke-linejoin="round"/>
<path d="M8 3C8 4.1 8.9 5 10 5C11.1 5 12 4.1 12 3C12 1.9 11.1 1 10 1C8.9 1 8 1.8 8 3Z" stroke="#638FFF" stroke-width="1.33333" stroke-linecap="round" stroke-linejoin="round"/>
<path d="M1 17C1 18.1 1.9 19 3 19C4.1 19 5 18.1 5 17C5 15.9 4.1 15 3 15C1.9 15 1 15.8 1 17Z" stroke="#638FFF" stroke-width="1.33333" stroke-linecap="round" stroke-linejoin="round"/>
<path d="M15 17C15 18.1 15.9 19 17 19C18.1 19 19 18.1 19 17C19 15.9 18.1 15 17 15C15.9 15 15 15.8 15 17Z" stroke="#638FFF" stroke-width="1.33333" stroke-linecap="round" stroke-linejoin="round"/>
<path d="M7 12C7 13.7 8.3 15 10 15C11.7 15 13 13.7 13 12C13 10.3 11.7 9 10 9C8.3 9 7 10.3 7 12Z" stroke="#031B4E" stroke-width="1.33333" stroke-linecap="round" stroke-linejoin="round"/>
</svg>
