<svg width="20" height="20" viewBox="0 0 20 20" fill="none" xmlns="http://www.w3.org/2000/svg">
<path fill-rule="evenodd" clip-rule="evenodd" d="M5.21983 14.78C5.36045 14.9205 5.55108 14.9993 5.74983 14.9993C5.94858 14.9993 6.1392 14.9205 6.27983 14.78L13.4998 7.56V13.25C13.4998 13.4489 13.5788 13.6397 13.7195 13.7803C13.8602 13.921 14.0509 14 14.2498 14C14.4487 14 14.6395 13.921 14.7802 13.7803C14.9208 13.6397 14.9998 13.4489 14.9998 13.25V5.75C14.9998 5.55109 14.9208 5.36032 14.7802 5.21967C14.6395 5.07902 14.4487 5 14.2498 5H6.74983C6.55092 5 6.36015 5.07902 6.2195 5.21967C6.07885 5.36032 5.99983 5.55109 5.99983 5.75C5.99983 5.94891 6.07885 6.13968 6.2195 6.28033C6.36015 6.42098 6.55092 6.5 6.74983 6.5H12.4398L5.21983 13.72C5.07938 13.8606 5.00049 14.0512 5.00049 14.25C5.00049 14.4488 5.07938 14.6394 5.21983 14.78Z" fill="white"/>
</svg>
