<svg width="20" height="20" viewBox="0 0 20 20" fill="none" xmlns="http://www.w3.org/2000/svg">
<path d="M18.9458 10.99C19.1439 9.2006 18.8008 7.39289 17.9608 5.8005C17.1208 4.20812 15.8225 2.90428 14.2337 2.05747C12.6449 1.21066 10.8387 0.859808 9.0484 1.05026C7.25814 1.24072 5.56614 1.96373 4.19108 3.12584C2.81602 4.28796 1.8211 5.83577 1.33489 7.56924C0.848689 9.30271 0.893555 11.1422 1.46369 12.8499C2.03383 14.5576 3.10303 16.055 4.53311 17.1487C5.96319 18.2424 7.68842 18.8821 9.48584 18.985M1.59984 7.00004H18.3998M1.59984 13H15.4998" stroke="#031B4E" stroke-width="1.33333" stroke-linecap="round" stroke-linejoin="round"/>
<path d="M9.50016 1C7.8155 3.69961 6.92236 6.81787 6.92236 10C6.92236 13.1821 7.8155 16.3004 9.50016 19M10.5002 1C12.7315 4.57555 13.5551 8.8525 12.8112 13.001M13.0002 17L15.0002 19L19.0002 15" stroke="#638FFF" stroke-width="1.33333" stroke-linecap="round" stroke-linejoin="round"/>
</svg>
