<svg width="40" height="40" viewBox="0 0 40 40" fill="none" xmlns="http://www.w3.org/2000/svg">
<rect width="40" height="40" rx="20" fill="white"/>
<rect x="0.5" y="0.5" width="39" height="39" rx="19.5" stroke="#031B4E" stroke-opacity="0.1"/>
<path d="M9 28.0002V25.2002C9 24.6336 9.14583 24.1127 9.4375 23.6377C9.72917 23.1627 10.1167 22.8002 10.6 22.5502C11.6333 22.0336 12.6833 21.6461 13.75 21.3877C14.8167 21.1294 15.9 21.0002 17 21.0002C18.1 21.0002 19.1833 21.1294 20.25 21.3877C21.3167 21.6461 22.3667 22.0336 23.4 22.5502C23.8833 22.8002 24.2708 23.1627 24.5625 23.6377C24.8542 24.1127 25 24.6336 25 25.2002V28.0002H9ZM27 28.0002V25.0002C27 24.2669 26.7958 23.5627 26.3875 22.8877C25.9792 22.2127 25.4 21.6336 24.65 21.1502C25.5 21.2502 26.3 21.4211 27.05 21.6627C27.8 21.9044 28.5 22.2002 29.15 22.5502C29.75 22.8836 30.2083 23.2544 30.525 23.6627C30.8417 24.0711 31 24.5169 31 25.0002V28.0002H27ZM17 20.0002C15.9 20.0002 14.9583 19.6086 14.175 18.8252C13.3917 18.0419 13 17.1002 13 16.0002C13 14.9002 13.3917 13.9586 14.175 13.1752C14.9583 12.3919 15.9 12.0002 17 12.0002C18.1 12.0002 19.0417 12.3919 19.825 13.1752C20.6083 13.9586 21 14.9002 21 16.0002C21 17.1002 20.6083 18.0419 19.825 18.8252C19.0417 19.6086 18.1 20.0002 17 20.0002ZM27 16.0002C27 17.1002 26.6083 18.0419 25.825 18.8252C25.0417 19.6086 24.1 20.0002 23 20.0002C22.8167 20.0002 22.5833 19.9794 22.3 19.9377C22.0167 19.8961 21.7833 19.8502 21.6 19.8002C22.05 19.2669 22.3958 18.6752 22.6375 18.0252C22.8792 17.3752 23 16.7002 23 16.0002C23 15.3002 22.8792 14.6252 22.6375 13.9752C22.3958 13.3252 22.05 12.7336 21.6 12.2002C21.8333 12.1169 22.0667 12.0627 22.3 12.0377C22.5333 12.0127 22.7667 12.0002 23 12.0002C24.1 12.0002 25.0417 12.3919 25.825 13.1752C26.6083 13.9586 27 14.9002 27 16.0002Z" fill="#3669E9"/>
</svg>
