<svg width="24" height="24" viewBox="0 0 24 24" fill="none" xmlns="http://www.w3.org/2000/svg">
<path d="M6.28432 5.22185C6.11885 5.08013 5.90386 5.00995 5.68664 5.02674C5.46942 5.04353 5.26777 5.14592 5.12605 5.31139L0.197208 11.0617C0.0699373 11.2105 0 11.3999 0 11.5957C0 11.7915 0.0699373 11.9808 0.197208 12.1296L5.12605 17.8799C5.1947 17.9665 5.28011 18.0383 5.37716 18.0911C5.47422 18.1439 5.58092 18.1766 5.69089 18.1872C5.80087 18.1978 5.91185 18.1861 6.0172 18.1528C6.12254 18.1195 6.22009 18.0653 6.30401 17.9934C6.38792 17.9216 6.45648 17.8335 6.50558 17.7345C6.55467 17.6355 6.5833 17.5277 6.58975 17.4174C6.59619 17.3071 6.58032 17.1966 6.54309 17.0926C6.50585 16.9886 6.44802 16.8932 6.37304 16.812L1.90259 11.5957L6.37304 6.37931C6.51461 6.21398 6.58477 5.99924 6.56814 5.78223C6.55151 5.56521 6.44943 5.36367 6.28432 5.22185Z" fill="#031B4E"/>
<path d="M22.8026 11.0613L17.8738 5.31102C17.8051 5.22446 17.7197 5.15263 17.6227 5.09984C17.5256 5.04705 17.4189 5.01438 17.3089 5.00379C17.199 4.99319 17.088 5.00489 16.9826 5.03818C16.8773 5.07147 16.7797 5.12567 16.6958 5.19753C16.6119 5.2694 16.5434 5.35745 16.4943 5.45642C16.4452 5.5554 16.4165 5.66326 16.4101 5.77355C16.4036 5.88385 16.4195 5.99431 16.4568 6.09833C16.494 6.20235 16.5518 6.29778 16.6268 6.37893L21.0973 11.5953L16.6268 16.8116C16.5518 16.8928 16.494 16.9882 16.4568 17.0922C16.4195 17.1963 16.4036 17.3067 16.4101 17.417C16.4165 17.5273 16.4452 17.6352 16.4943 17.7341C16.5434 17.8331 16.6119 17.9212 16.6958 17.993C16.7797 18.0649 16.8773 18.1191 16.9826 18.1524C17.088 18.1857 17.199 18.1974 17.3089 18.1868C17.4189 18.1762 17.5256 18.1435 17.6227 18.0907C17.7197 18.0379 17.8051 17.9661 17.8738 17.8796L22.8026 12.1292C22.9299 11.9804 22.9998 11.7911 22.9998 11.5953C22.9998 11.3995 22.9299 11.2101 22.8026 11.0613Z" fill="#031B4E"/>
<mask id="path-3-inside-1_51_133" fill="white">
<path d="M9.03572 18.167C8.92439 18.1675 8.81418 18.1448 8.71206 18.1004C8.51185 18.0146 8.35395 17.8527 8.27307 17.6505C8.19219 17.4482 8.19497 17.2221 8.28079 17.0219L13.2096 5.52124C13.2975 5.32409 13.4594 5.16945 13.6604 5.09074C13.8614 5.01204 14.0853 5.01559 14.2836 5.10064C14.482 5.18569 14.6389 5.3454 14.7205 5.54524C14.8021 5.74508 14.8017 5.96899 14.7195 6.16856L9.79065 17.6692C9.72732 17.8169 9.62204 17.9428 9.48785 18.0313C9.35366 18.1198 9.19646 18.167 9.03572 18.167Z"/>
</mask>
<path d="M9.03572 18.167C8.92439 18.1675 8.81418 18.1448 8.71206 18.1004C8.51185 18.0146 8.35395 17.8527 8.27307 17.6505C8.19219 17.4482 8.19497 17.2221 8.28079 17.0219L13.2096 5.52124C13.2975 5.32409 13.4594 5.16945 13.6604 5.09074C13.8614 5.01204 14.0853 5.01559 14.2836 5.10064C14.482 5.18569 14.6389 5.3454 14.7205 5.54524C14.8021 5.74508 14.8017 5.96899 14.7195 6.16856L9.79065 17.6692C9.72732 17.8169 9.62204 17.9428 9.48785 18.0313C9.35366 18.1198 9.19646 18.167 9.03572 18.167Z" fill="#638FFF"/>
<path d="M8.71206 18.1004L12.9606 8.31641L12.9384 8.30676L12.9161 8.29721L8.71206 18.1004ZM8.28079 17.0219L18.0849 21.224L18.085 21.2237L8.28079 17.0219ZM13.2096 5.52124L3.46684 1.17889L3.43562 1.24894L3.40541 1.31943L13.2096 5.52124ZM14.7195 6.16856L24.5237 10.3704L24.5534 10.3012L24.582 10.2315L14.7195 6.16856ZM9.79065 17.6692L19.5945 21.8718L19.5949 21.871L9.79065 17.6692ZM8.99147 7.50041C10.3567 7.49475 11.7083 7.7726 12.9606 8.31641L4.46349 27.8845C5.92007 28.517 7.49207 28.8402 9.07997 28.8336L8.99147 7.50041ZM12.9161 8.29721C15.3156 9.3262 17.208 11.2661 18.1773 13.6903L-1.6312 21.6107C-0.500154 24.4394 1.70813 26.703 4.50797 27.9037L12.9161 8.29721ZM18.1773 13.6903C19.1466 16.1144 19.1134 18.8243 18.0849 21.224L-1.5233 12.8198C-2.72343 15.6198 -2.76226 18.7819 -1.6312 21.6107L18.1773 13.6903ZM18.085 21.2237L23.0138 9.72304L3.40541 1.31943L-1.52343 12.8201L18.085 21.2237ZM22.9524 9.86358C21.8993 12.2264 19.9586 14.0797 17.5499 15.023L9.77086 -4.84149C6.96022 -3.74082 4.69566 -1.57818 3.46684 1.17889L22.9524 9.86358ZM17.5499 15.023C15.1412 15.9662 12.4581 15.9236 10.0805 14.9043L18.4867 -4.70302C15.7125 -5.89243 12.5815 -5.94217 9.77086 -4.84149L17.5499 15.023ZM10.0805 14.9043C7.70302 13.885 5.82219 11.9709 4.8447 9.5759L24.5963 1.51458C23.4557 -1.28011 21.261 -3.51361 18.4867 -4.70302L10.0805 14.9043ZM4.8447 9.5759C3.86723 7.18091 3.8716 4.4974 4.85694 2.10557L24.582 10.2315C25.7318 7.44057 25.7369 4.30924 24.5963 1.51458L4.8447 9.5759ZM4.91528 1.96675L-0.0135612 13.4674L19.5949 21.871L24.5237 10.3704L4.91528 1.96675ZM-0.0131922 13.4665C0.7458 11.696 2.00757 10.1869 3.61584 9.1264L15.3599 26.9362C17.2365 25.6987 18.7088 23.9379 19.5945 21.8718L-0.0131922 13.4665ZM3.61584 9.1264C5.2241 8.0659 7.10813 7.50053 9.03454 7.50032L9.0369 28.8337C11.2848 28.8334 13.4832 28.1737 15.3599 26.9362L3.61584 9.1264Z" fill="#638FFF" mask="url(#path-3-inside-1_51_133)"/>
</svg>
