<svg width="1600" height="722" viewBox="0 0 1600 722" fill="none" xmlns="http://www.w3.org/2000/svg">
<g clip-path="url(#clip0_0_3)">
<mask id="mask0_0_3" style="mask-type:alpha" maskUnits="userSpaceOnUse" x="70" y="-402" width="1432" height="1432">
<circle cx="786" cy="314" r="716" fill="url(#paint0_radial_0_3)"/>
</mask>
<g mask="url(#mask0_0_3)">
<line x1="2.91409e-08" y1="-0.333333" x2="1600" y2="-0.333193" stroke="#031B4E" stroke-opacity="0.1" stroke-width="0.666667"/>
<line x1="2.91409e-08" y1="124.667" x2="1600" y2="124.667" stroke="#031B4E" stroke-opacity="0.1" stroke-width="0.666667"/>
<line x1="2.91409e-08" y1="249.667" x2="1600" y2="249.667" stroke="#031B4E" stroke-opacity="0.1" stroke-width="0.666667"/>
<line x1="2.91409e-08" y1="374.667" x2="1600" y2="374.667" stroke="#031B4E" stroke-opacity="0.1" stroke-width="0.666667"/>
<line x1="2.91409e-08" y1="499.667" x2="1600" y2="499.667" stroke="#031B4E" stroke-opacity="0.1" stroke-width="0.666667"/>
<line x1="2.91409e-08" y1="624.667" x2="1600" y2="624.667" stroke="#031B4E" stroke-opacity="0.1" stroke-width="0.666667"/>
<line x1="122.744" y1="1000" x2="122.744" y2="-600" stroke="#031B4E" stroke-opacity="0.1" stroke-width="0.666667"/>
<line x1="245.821" y1="1000" x2="245.821" y2="-600" stroke="#031B4E" stroke-opacity="0.1" stroke-width="0.666667"/>
<line x1="368.897" y1="1000" x2="368.897" y2="-600" stroke="#031B4E" stroke-opacity="0.1" stroke-width="0.666667"/>
<line x1="491.974" y1="1000" x2="491.974" y2="-600" stroke="#031B4E" stroke-opacity="0.1" stroke-width="0.666667"/>
<line x1="615.051" y1="1000" x2="615.051" y2="-600" stroke="#031B4E" stroke-opacity="0.1" stroke-width="0.666667"/>
<line x1="738.128" y1="1000" x2="738.128" y2="-600" stroke="#031B4E" stroke-opacity="0.1" stroke-width="0.666667"/>
<line x1="861.205" y1="1000" x2="861.205" y2="-600" stroke="#031B4E" stroke-opacity="0.1" stroke-width="0.666667"/>
<line x1="984.282" y1="1000" x2="984.282" y2="-600" stroke="#031B4E" stroke-opacity="0.1" stroke-width="0.666667"/>
<line x1="1107.36" y1="1000" x2="1107.36" y2="-600" stroke="#031B4E" stroke-opacity="0.1" stroke-width="0.666667"/>
<line x1="1230.44" y1="1000" x2="1230.44" y2="-600" stroke="#031B4E" stroke-opacity="0.1" stroke-width="0.666667"/>
<line x1="1353.51" y1="1000" x2="1353.51" y2="-600" stroke="#031B4E" stroke-opacity="0.1" stroke-width="0.666667"/>
<line x1="1476.59" y1="1000" x2="1476.59" y2="-600" stroke="#031B4E" stroke-opacity="0.1" stroke-width="0.666667"/>
</g>
</g>
<defs>
<radialGradient id="paint0_radial_0_3" cx="0" cy="0" r="1" gradientUnits="userSpaceOnUse" gradientTransform="translate(786 175.175) rotate(90) scale(854.825)">
<stop stop-color="#D9D9D9"/>
<stop offset="1" stop-color="#D9D9D9" stop-opacity="0"/>
</radialGradient>
<clipPath id="clip0_0_3">
<rect width="1600" height="722" fill="white"/>
</clipPath>
</defs>
</svg>
