<svg width="1600" height="722" viewBox="0 0 1600 722" fill="none" xmlns="http://www.w3.org/2000/svg">
<g clip-path="url(#clip0_0_3)">
<rect width="1600" height="722" fill="url(#paint0_linear_0_3)"/>
<mask id="mask0_0_3" style="mask-type:alpha" maskUnits="userSpaceOnUse" x="70" y="-402" width="1432" height="1432">
<circle cx="786" cy="314" r="716" fill="url(#paint1_radial_0_3)"/>
</mask>
<g mask="url(#mask0_0_3)">
<line x1="2.91409e-08" y1="-0.333333" x2="1600" y2="-0.333193" stroke="#031B4E" stroke-opacity="0.1" stroke-width="0.666667"/>
<line x1="2.91409e-08" y1="124.667" x2="1600" y2="124.667" stroke="#031B4E" stroke-opacity="0.1" stroke-width="0.666667"/>
<line x1="2.91409e-08" y1="249.667" x2="1600" y2="249.667" stroke="#031B4E" stroke-opacity="0.1" stroke-width="0.666667"/>
<line x1="2.91409e-08" y1="374.667" x2="1600" y2="374.667" stroke="#031B4E" stroke-opacity="0.1" stroke-width="0.666667"/>
<line x1="2.91409e-08" y1="499.667" x2="1600" y2="499.667" stroke="#031B4E" stroke-opacity="0.1" stroke-width="0.666667"/>
<line x1="2.91409e-08" y1="624.667" x2="1600" y2="624.667" stroke="#031B4E" stroke-opacity="0.1" stroke-width="0.666667"/>
<line x1="122.744" y1="1000" x2="122.744" y2="-600" stroke="#031B4E" stroke-opacity="0.1" stroke-width="0.666667"/>
<line x1="245.821" y1="1000" x2="245.821" y2="-600" stroke="#031B4E" stroke-opacity="0.1" stroke-width="0.666667"/>
<line x1="368.897" y1="1000" x2="368.897" y2="-600" stroke="#031B4E" stroke-opacity="0.1" stroke-width="0.666667"/>
<line x1="491.974" y1="1000" x2="491.974" y2="-600" stroke="#031B4E" stroke-opacity="0.1" stroke-width="0.666667"/>
<line x1="615.051" y1="1000" x2="615.051" y2="-600" stroke="#031B4E" stroke-opacity="0.1" stroke-width="0.666667"/>
<line x1="738.128" y1="1000" x2="738.128" y2="-600" stroke="#031B4E" stroke-opacity="0.1" stroke-width="0.666667"/>
<line x1="861.205" y1="1000" x2="861.205" y2="-600" stroke="#031B4E" stroke-opacity="0.1" stroke-width="0.666667"/>
<line x1="984.282" y1="1000" x2="984.282" y2="-600" stroke="#031B4E" stroke-opacity="0.1" stroke-width="0.666667"/>
<line x1="1107.36" y1="1000" x2="1107.36" y2="-600" stroke="#031B4E" stroke-opacity="0.1" stroke-width="0.666667"/>
<line x1="1230.44" y1="1000" x2="1230.44" y2="-600" stroke="#031B4E" stroke-opacity="0.1" stroke-width="0.666667"/>
<line x1="1353.51" y1="1000" x2="1353.51" y2="-600" stroke="#031B4E" stroke-opacity="0.1" stroke-width="0.666667"/>
<line x1="1476.59" y1="1000" x2="1476.59" y2="-600" stroke="#031B4E" stroke-opacity="0.1" stroke-width="0.666667"/>
<rect opacity="0.47" x="1353.56" y="249.556" width="122.222" height="123.333" fill="#031B4E" fill-opacity="0.1" stroke="#031B4E" stroke-width="1.11111"/>
<rect opacity="0.4" x="984.556" y="374.556" width="122.889" height="124.889" fill="#031B4E" fill-opacity="0.1" stroke="#031B4E" stroke-width="1.11111"/>
<rect opacity="0.47" x="1230.56" y="499.556" width="122.222" height="123.333" fill="#031B4E" fill-opacity="0.1" stroke="#031B4E" stroke-width="1.11111"/>
<rect opacity="0.4" x="1107.56" y="124.556" width="122.222" height="123.333" fill="#031B4E" fill-opacity="0.1" stroke="#031B4E" stroke-width="1.11111"/>
<rect opacity="0.4" x="861.556" y="124.556" width="122.889" height="124.889" fill="#031B4E" fill-opacity="0.1" stroke="#031B4E" stroke-width="1.11111"/>
</g>
<path d="M1172.25 187.335C1178.53 186.919 1183.53 181.849 1183.94 175.485C1184.02 174.24 1184.02 172.95 1183.94 171.705C1183.53 165.342 1178.53 160.275 1172.25 159.856C1170.09 159.714 1167.91 159.714 1165.74 159.856C1159.47 160.273 1154.47 165.342 1154.06 171.706C1153.98 172.965 1153.98 174.228 1154.06 175.486C1154.21 177.804 1155.23 179.95 1156.44 181.762C1157.14 183.03 1156.68 184.612 1155.95 185.997C1155.42 186.994 1155.16 187.492 1155.37 187.852C1155.58 188.212 1156.05 188.224 1157 188.247C1158.87 188.292 1160.12 187.764 1161.12 187.027C1161.69 186.609 1161.97 186.4 1162.17 186.376C1162.36 186.352 1162.75 186.511 1163.52 186.826C1164.21 187.111 1165.01 187.287 1165.74 187.336C1167.88 187.477 1170.11 187.477 1172.26 187.336" stroke="#031B4E" stroke-width="2" stroke-linecap="round" stroke-linejoin="round"/>
<path d="M1166.73 166.501V169.47M1161.5 171.752H1164.58M1173.53 171.752H1176.61M1173.53 176.213H1176.61M1161.5 176.213H1164.58M1166.73 178.53V181.5M1171.27 178.53V181.5M1171.25 166.5V169.47M1166.08 178.453H1172.04C1172.43 178.453 1172.82 178.295 1173.1 178.014C1173.38 177.733 1173.54 177.351 1173.54 176.953V170.97C1173.54 170.572 1173.38 170.191 1173.1 169.909C1172.82 169.628 1172.43 169.47 1172.04 169.47H1166.08C1165.68 169.47 1165.3 169.628 1165.02 169.909C1164.74 170.191 1164.58 170.572 1164.58 170.97V176.953C1164.58 177.351 1164.74 177.733 1165.02 178.014C1165.3 178.295 1165.68 178.453 1166.08 178.453Z" stroke="#3669E9" stroke-width="2" stroke-linecap="round" stroke-linejoin="round"/>
<path d="M1142 213L1141.24 211.068H1136.66L1135.91 213H1134.37L1138.08 203.662H1139.83L1143.54 213H1142ZM1138.94 204.88L1137.07 209.822H1140.83L1138.94 204.88ZM1144.38 213V203.662H1145.78V213H1144.38ZM1157.58 213L1156.82 211.068H1152.24L1151.49 213H1149.95L1153.66 203.662H1155.41L1159.12 213H1157.58ZM1154.52 204.88L1152.65 209.822H1156.41L1154.52 204.88ZM1159.34 212.118L1159.94 211.194C1160.4 211.698 1161.3 212.16 1162.21 212.16C1163.16 212.16 1163.67 211.768 1163.67 211.194C1163.67 210.522 1162.9 210.298 1162.03 210.102C1160.88 209.836 1159.54 209.528 1159.54 208.072C1159.54 206.994 1160.46 206.07 1162.11 206.07C1163.27 206.07 1164.11 206.49 1164.69 207.036L1164.13 207.918C1163.74 207.442 1162.98 207.092 1162.13 207.092C1161.27 207.092 1160.74 207.428 1160.74 207.974C1160.74 208.562 1161.47 208.758 1162.31 208.954C1163.48 209.22 1164.88 209.542 1164.88 211.096C1164.88 212.258 1163.93 213.168 1162.15 213.168C1161.02 213.168 1160.03 212.818 1159.34 212.118ZM1165.61 212.118L1166.21 211.194C1166.67 211.698 1167.57 212.16 1168.48 212.16C1169.43 212.16 1169.93 211.768 1169.93 211.194C1169.93 210.522 1169.16 210.298 1168.3 210.102C1167.15 209.836 1165.8 209.528 1165.8 208.072C1165.8 206.994 1166.73 206.07 1168.38 206.07C1169.54 206.07 1170.38 206.49 1170.96 207.036L1170.4 207.918C1170 207.442 1169.25 207.092 1168.39 207.092C1167.54 207.092 1167.01 207.428 1167.01 207.974C1167.01 208.562 1167.74 208.758 1168.58 208.954C1169.75 209.22 1171.15 209.542 1171.15 211.096C1171.15 212.258 1170.2 213.168 1168.42 213.168C1167.29 213.168 1166.29 212.818 1165.61 212.118ZM1173.08 205.104C1172.65 205.104 1172.27 204.754 1172.27 204.306C1172.27 203.858 1172.65 203.494 1173.08 203.494C1173.53 203.494 1173.89 203.858 1173.89 204.306C1173.89 204.754 1173.53 205.104 1173.08 205.104ZM1172.47 213V206.238H1173.73V213H1172.47ZM1174.87 212.118L1175.47 211.194C1175.93 211.698 1176.83 212.16 1177.74 212.16C1178.69 212.16 1179.19 211.768 1179.19 211.194C1179.19 210.522 1178.42 210.298 1177.55 210.102C1176.41 209.836 1175.06 209.528 1175.06 208.072C1175.06 206.994 1175.99 206.07 1177.64 206.07C1178.8 206.07 1179.64 206.49 1180.21 207.036L1179.65 207.918C1179.26 207.442 1178.51 207.092 1177.65 207.092C1176.8 207.092 1176.27 207.428 1176.27 207.974C1176.27 208.562 1176.99 208.758 1177.83 208.954C1179.01 209.22 1180.41 209.542 1180.41 211.096C1180.41 212.258 1179.46 213.168 1177.68 213.168C1176.55 213.168 1175.55 212.818 1174.87 212.118ZM1183.58 213.168C1182.52 213.168 1181.97 212.566 1181.97 211.502V207.344H1180.85V206.238H1181.97V204.39H1183.23V206.238H1184.61V207.344H1183.23V211.222C1183.23 211.698 1183.46 212.048 1183.89 212.048C1184.19 212.048 1184.45 211.922 1184.58 211.782L1184.9 212.734C1184.63 212.986 1184.24 213.168 1183.58 213.168ZM1189.89 213V212.258C1189.36 212.846 1188.59 213.168 1187.68 213.168C1186.56 213.168 1185.33 212.412 1185.33 210.928C1185.33 209.388 1186.55 208.716 1187.68 208.716C1188.59 208.716 1189.38 209.01 1189.89 209.612V208.492C1189.89 207.652 1189.21 207.148 1188.24 207.148C1187.47 207.148 1186.81 207.442 1186.21 208.044L1185.67 207.176C1186.42 206.434 1187.35 206.07 1188.44 206.07C1189.91 206.07 1191.15 206.714 1191.15 208.436V213H1189.89ZM1189.89 211.516V210.368C1189.52 209.864 1188.86 209.598 1188.16 209.598C1187.25 209.598 1186.6 210.144 1186.6 210.942C1186.6 211.74 1187.25 212.286 1188.16 212.286C1188.86 212.286 1189.52 212.02 1189.89 211.516ZM1197.46 213V208.674C1197.46 207.554 1196.88 207.19 1196.01 207.19C1195.23 207.19 1194.52 207.666 1194.15 208.17V213H1192.89V206.238H1194.15V207.19C1194.6 206.644 1195.5 206.07 1196.55 206.07C1197.97 206.07 1198.72 206.826 1198.72 208.254V213H1197.46ZM1202.29 213.168C1201.23 213.168 1200.68 212.566 1200.68 211.502V207.344H1199.56V206.238H1200.68V204.39H1201.94V206.238H1203.32V207.344H1201.94V211.222C1201.94 211.698 1202.17 212.048 1202.6 212.048C1202.9 212.048 1203.16 211.922 1203.29 211.782L1203.61 212.734C1203.34 212.986 1202.95 213.168 1202.29 213.168Z" fill="#031B4E" fill-opacity="0.6"/>
<path d="M1404.5 311L1408.12 307.381M1408.12 307.381C1408.74 308 1409.47 308.491 1410.28 308.826C1411.09 309.161 1411.96 309.333 1412.83 309.333C1413.71 309.333 1414.58 309.161 1415.38 308.826C1416.19 308.491 1416.93 308 1417.55 307.381C1418.17 306.761 1418.66 306.027 1418.99 305.218C1419.33 304.409 1419.5 303.542 1419.5 302.667C1419.5 301.791 1419.33 300.924 1418.99 300.116C1418.66 299.307 1418.17 298.572 1417.55 297.953C1416.3 296.703 1414.6 296.001 1412.83 296.001C1411.07 296.001 1409.37 296.703 1408.12 297.953C1406.87 299.203 1406.17 300.899 1406.17 302.667C1406.17 304.435 1406.87 306.13 1408.12 307.381Z" stroke="#3669E9" stroke-width="2" stroke-linecap="round" stroke-linejoin="round"/>
<path d="M1401.5 303.782C1400.51 302.084 1400 300.156 1400 298.193C1400 292.012 1405.04 287 1411.25 287H1418.75C1424.96 287 1430 292.012 1430 298.193C1430 303.068 1426.87 307.214 1422.5 308.75" stroke="#031B4E" stroke-width="2" stroke-linecap="round" stroke-linejoin="round"/>
<path d="M1373.1 336.684L1373.9 335.606C1374.53 336.306 1375.53 336.922 1376.84 336.922C1378.35 336.922 1378.88 336.152 1378.88 335.48C1378.88 334.5 1377.82 334.22 1376.63 333.912C1375.13 333.52 1373.39 333.086 1373.39 331.182C1373.39 329.642 1374.75 328.522 1376.7 328.522C1378.14 328.522 1379.27 328.984 1380.1 329.824L1379.29 330.86C1378.57 330.104 1377.59 329.768 1376.58 329.768C1375.55 329.768 1374.83 330.3 1374.83 331.084C1374.83 331.924 1375.84 332.19 1377 332.484C1378.53 332.89 1380.31 333.366 1380.31 335.354C1380.31 336.81 1379.3 338.168 1376.78 338.168C1375.11 338.168 1373.9 337.566 1373.1 336.684ZM1381.65 338V328.662H1387.92V329.894H1383.05V332.624H1387.82V333.856H1383.05V336.768H1387.92V338H1381.65ZM1394.77 338L1392.55 334.402H1390.8V338H1389.4V328.662H1393.33C1395.11 328.662 1396.33 329.81 1396.33 331.532C1396.33 333.212 1395.19 334.108 1394 334.262L1396.4 338H1394.77ZM1394.88 331.532C1394.88 330.552 1394.16 329.894 1393.15 329.894H1390.8V333.17H1393.15C1394.16 333.17 1394.88 332.512 1394.88 331.532ZM1397.77 338V328.662H1401.7C1403.62 328.662 1404.69 329.978 1404.69 331.532C1404.69 333.086 1403.61 334.402 1401.7 334.402H1399.17V338H1397.77ZM1403.24 331.532C1403.24 330.552 1402.53 329.894 1401.52 329.894H1399.17V333.17H1401.52C1402.53 333.17 1403.24 332.512 1403.24 331.532ZM1415.84 338L1415.08 336.068H1410.5L1409.75 338H1408.21L1411.92 328.662H1413.67L1417.38 338H1415.84ZM1412.78 329.88L1410.91 334.822H1414.67L1412.78 329.88ZM1422.75 338V333.674C1422.75 332.554 1422.18 332.19 1421.31 332.19C1420.53 332.19 1419.81 332.666 1419.45 333.17V338H1418.19V331.238H1419.45V332.19C1419.9 331.644 1420.79 331.07 1421.84 331.07C1423.27 331.07 1424.01 331.826 1424.01 333.254V338H1422.75ZM1429.9 338V337.258C1429.37 337.846 1428.6 338.168 1427.69 338.168C1426.57 338.168 1425.34 337.412 1425.34 335.928C1425.34 334.388 1426.55 333.716 1427.69 333.716C1428.6 333.716 1429.38 334.01 1429.9 334.612V333.492C1429.9 332.652 1429.21 332.148 1428.25 332.148C1427.48 332.148 1426.82 332.442 1426.22 333.044L1425.67 332.176C1426.43 331.434 1427.35 331.07 1428.44 331.07C1429.91 331.07 1431.16 331.714 1431.16 333.436V338H1429.9ZM1429.9 336.516V335.368C1429.52 334.864 1428.86 334.598 1428.16 334.598C1427.25 334.598 1426.61 335.144 1426.61 335.942C1426.61 336.74 1427.25 337.286 1428.16 337.286C1428.86 337.286 1429.52 337.02 1429.9 336.516ZM1432.9 338V328.662H1434.16V338H1432.9ZM1435.75 339.512C1435.9 339.582 1436.14 339.624 1436.31 339.624C1436.77 339.624 1437.08 339.47 1437.29 338.966L1437.68 338.07L1434.89 331.238H1436.24L1438.35 336.544L1440.47 331.238H1441.82L1438.49 339.288C1438.06 340.352 1437.32 340.73 1436.34 340.744C1436.13 340.744 1435.75 340.702 1435.55 340.646L1435.75 339.512ZM1441.98 337.118L1442.58 336.194C1443.04 336.698 1443.94 337.16 1444.85 337.16C1445.8 337.16 1446.3 336.768 1446.3 336.194C1446.3 335.522 1445.53 335.298 1444.67 335.102C1443.52 334.836 1442.17 334.528 1442.17 333.072C1442.17 331.994 1443.1 331.07 1444.75 331.07C1445.91 331.07 1446.75 331.49 1447.33 332.036L1446.77 332.918C1446.37 332.442 1445.62 332.092 1444.76 332.092C1443.91 332.092 1443.38 332.428 1443.38 332.974C1443.38 333.562 1444.11 333.758 1444.95 333.954C1446.12 334.22 1447.52 334.542 1447.52 336.096C1447.52 337.258 1446.57 338.168 1444.79 338.168C1443.66 338.168 1442.66 337.818 1441.98 337.118ZM1449.45 330.104C1449.02 330.104 1448.64 329.754 1448.64 329.306C1448.64 328.858 1449.02 328.494 1449.45 328.494C1449.9 328.494 1450.26 328.858 1450.26 329.306C1450.26 329.754 1449.9 330.104 1449.45 330.104ZM1448.84 338V331.238H1450.1V338H1448.84ZM1451.24 337.118L1451.84 336.194C1452.3 336.698 1453.2 337.16 1454.11 337.16C1455.06 337.16 1455.56 336.768 1455.56 336.194C1455.56 335.522 1454.79 335.298 1453.92 335.102C1452.78 334.836 1451.43 334.528 1451.43 333.072C1451.43 331.994 1452.36 331.07 1454.01 331.07C1455.17 331.07 1456.01 331.49 1456.58 332.036L1456.02 332.918C1455.63 332.442 1454.88 332.092 1454.02 332.092C1453.17 332.092 1452.64 332.428 1452.64 332.974C1452.64 333.562 1453.36 333.758 1454.2 333.954C1455.38 334.22 1456.78 334.542 1456.78 336.096C1456.78 337.258 1455.83 338.168 1454.05 338.168C1452.92 338.168 1451.92 337.818 1451.24 337.118Z" fill="#031B4E" fill-opacity="0.6"/>
<path d="M1059.42 425.485C1059.72 422.801 1059.2 420.089 1057.94 417.701C1056.68 415.312 1054.73 413.356 1052.35 412.086C1049.97 410.816 1047.26 410.29 1044.57 410.575C1041.89 410.861 1039.35 411.946 1037.29 413.689C1035.22 415.432 1033.73 417.754 1033 420.354C1032.27 422.954 1032.34 425.713 1033.2 428.275C1034.05 430.836 1035.65 433.082 1037.8 434.723C1039.95 436.364 1042.53 437.323 1045.23 437.478M1033.4 419.5H1058.6M1033.4 428.5H1054.25" stroke="#031B4E" stroke-width="2" stroke-linecap="round" stroke-linejoin="round"/>
<path d="M1045.25 410.5C1042.72 414.549 1041.38 419.227 1041.38 424C1041.38 428.773 1042.72 433.451 1045.25 437.5M1046.75 410.5C1050.1 415.863 1051.33 422.279 1050.22 428.502M1050.5 434.5L1053.5 437.5L1059.5 431.5" stroke="#3669E9" stroke-width="2" stroke-linecap="round" stroke-linejoin="round"/>
<path d="M1013.45 459.346V453.662H1014.86V459.304C1014.86 460.9 1015.75 461.922 1017.38 461.922C1019.02 461.922 1019.89 460.9 1019.89 459.304V453.662H1021.3V459.332C1021.3 461.656 1020 463.168 1017.38 463.168C1014.77 463.168 1013.45 461.642 1013.45 459.346ZM1028.49 463L1026.26 459.402H1024.51V463H1023.11V453.662H1027.04C1028.82 453.662 1030.04 454.81 1030.04 456.532C1030.04 458.212 1028.91 459.108 1027.72 459.262L1030.11 463H1028.49ZM1028.6 456.532C1028.6 455.552 1027.87 454.894 1026.86 454.894H1024.51V458.17H1026.86C1027.87 458.17 1028.6 457.512 1028.6 456.532ZM1031.48 463V453.662H1032.88V461.768H1037.13V463H1031.48ZM1043.99 463V454.894H1041.09V453.662H1048.28V454.894H1045.39V463H1043.99ZM1050.88 463.168C1048.78 463.168 1047.46 461.572 1047.46 459.612C1047.46 457.666 1048.78 456.07 1050.88 456.07C1052.99 456.07 1054.3 457.666 1054.3 459.612C1054.3 461.572 1052.99 463.168 1050.88 463.168ZM1050.88 462.048C1052.24 462.048 1052.98 460.9 1052.98 459.612C1052.98 458.338 1052.24 457.19 1050.88 457.19C1049.54 457.19 1048.78 458.338 1048.78 459.612C1048.78 460.9 1049.54 462.048 1050.88 462.048ZM1058.61 463.168C1056.51 463.168 1055.19 461.572 1055.19 459.612C1055.19 457.666 1056.51 456.07 1058.61 456.07C1060.72 456.07 1062.03 457.666 1062.03 459.612C1062.03 461.572 1060.72 463.168 1058.61 463.168ZM1058.61 462.048C1059.97 462.048 1060.71 460.9 1060.71 459.612C1060.71 458.338 1059.97 457.19 1058.61 457.19C1057.27 457.19 1056.51 458.338 1056.51 459.612C1056.51 460.9 1057.27 462.048 1058.61 462.048ZM1063.35 463V453.662H1064.61V463H1063.35ZM1070.87 463L1068.62 460.088L1067.59 461.124V463H1066.33V453.662H1067.59V459.668L1070.86 456.238H1072.44L1069.53 459.304L1072.47 463H1070.87ZM1073.94 455.104C1073.51 455.104 1073.13 454.754 1073.13 454.306C1073.13 453.858 1073.51 453.494 1073.94 453.494C1074.39 453.494 1074.76 453.858 1074.76 454.306C1074.76 454.754 1074.39 455.104 1073.94 455.104ZM1073.33 463V456.238H1074.59V463H1073.33ZM1078.18 463.168C1077.11 463.168 1076.57 462.566 1076.57 461.502V457.344H1075.45V456.238H1076.57V454.39H1077.83V456.238H1079.2V457.344H1077.83V461.222C1077.83 461.698 1078.05 462.048 1078.49 462.048C1078.78 462.048 1079.05 461.922 1079.17 461.782L1079.49 462.734C1079.23 462.986 1078.84 463.168 1078.18 463.168Z" fill="#031B4E" fill-opacity="0.6"/>
<path d="M1280 540C1280 542.485 1285.37 544.5 1292 544.5C1298.63 544.5 1304 542.485 1304 540C1304 537.515 1298.63 535.5 1292 535.5C1285.37 535.5 1280 537.515 1280 540Z" stroke="#031B4E" stroke-width="2" stroke-linecap="round" stroke-linejoin="round"/>
<path d="M1280 540V549C1280 551.145 1284.01 552.94 1289.36 553.39M1304 546.75V540" stroke="#031B4E" stroke-width="2" stroke-linecap="round" stroke-linejoin="round"/>
<path d="M1280 549V558C1280 560.319 1284.68 562.23 1290.69 562.473M1300.7 562.226L1297.44 563.933C1297.35 563.983 1297.24 564.005 1297.13 563.997C1297.02 563.989 1296.91 563.951 1296.83 563.888C1296.74 563.824 1296.67 563.737 1296.63 563.636C1296.59 563.535 1296.57 563.425 1296.59 563.318L1297.21 559.701L1294.58 557.141C1294.5 557.064 1294.44 556.968 1294.42 556.862C1294.39 556.755 1294.39 556.644 1294.43 556.54C1294.46 556.436 1294.52 556.344 1294.61 556.273C1294.69 556.203 1294.79 556.158 1294.9 556.143L1298.54 555.615L1300.17 552.326C1300.22 552.228 1300.3 552.145 1300.39 552.087C1300.48 552.03 1300.59 551.999 1300.7 551.999C1300.81 551.999 1300.92 552.03 1301.01 552.087C1301.1 552.145 1301.18 552.228 1301.23 552.326L1302.86 555.615L1306.5 556.143C1306.61 556.159 1306.71 556.204 1306.79 556.274C1306.87 556.345 1306.94 556.437 1306.97 556.541C1307 556.644 1307.01 556.756 1306.98 556.862C1306.96 556.968 1306.9 557.064 1306.82 557.141L1304.19 559.701L1304.81 563.316C1304.83 563.424 1304.82 563.535 1304.77 563.636C1304.73 563.737 1304.66 563.825 1304.58 563.889C1304.49 563.954 1304.38 563.992 1304.27 563.999C1304.16 564.007 1304.05 563.984 1303.96 563.933L1300.7 562.226Z" stroke="#3669E9" stroke-width="2" stroke-linecap="round" stroke-linejoin="round"/>
<path d="M1245.8 586.684L1246.6 585.606C1247.23 586.306 1248.24 586.922 1249.54 586.922C1251.05 586.922 1251.59 586.152 1251.59 585.48C1251.59 584.5 1250.52 584.22 1249.33 583.912C1247.83 583.52 1246.1 583.086 1246.1 581.182C1246.1 579.642 1247.46 578.522 1249.4 578.522C1250.84 578.522 1251.98 578.984 1252.8 579.824L1251.99 580.86C1251.28 580.104 1250.3 579.768 1249.29 579.768C1248.25 579.768 1247.54 580.3 1247.54 581.084C1247.54 581.924 1248.55 582.19 1249.71 582.484C1251.24 582.89 1253.01 583.366 1253.01 585.354C1253.01 586.81 1252.01 588.168 1249.49 588.168C1247.82 588.168 1246.6 587.566 1245.8 586.684ZM1255.97 588.168C1254.91 588.168 1254.36 587.566 1254.36 586.502V582.344H1253.24V581.238H1254.36V579.39H1255.62V581.238H1256.99V582.344H1255.62V586.222C1255.62 586.698 1255.85 587.048 1256.28 587.048C1256.57 587.048 1256.84 586.922 1256.97 586.782L1257.29 587.734C1257.02 587.986 1256.63 588.168 1255.97 588.168ZM1258.11 588V581.238H1259.37V582.274C1259.89 581.602 1260.69 581.084 1261.58 581.084V582.358C1261.46 582.33 1261.32 582.316 1261.15 582.316C1260.52 582.316 1259.66 582.792 1259.37 583.296V588H1258.11ZM1267.12 588V587.076C1266.61 587.636 1265.75 588.168 1264.72 588.168C1263.27 588.168 1262.56 587.44 1262.56 586.012V581.238H1263.82V585.592C1263.82 586.712 1264.38 587.048 1265.25 587.048C1266.03 587.048 1266.75 586.6 1267.12 586.096V581.238H1268.38V588H1267.12ZM1269.68 584.612C1269.68 582.582 1271.08 581.07 1273.12 581.07C1274.4 581.07 1275.17 581.602 1275.66 582.26L1274.82 583.03C1274.41 582.456 1273.87 582.19 1273.18 582.19C1271.85 582.19 1271 583.212 1271 584.612C1271 586.012 1271.85 587.048 1273.18 587.048C1273.87 587.048 1274.41 586.768 1274.82 586.208L1275.66 586.978C1275.17 587.636 1274.4 588.168 1273.12 588.168C1271.08 588.168 1269.68 586.642 1269.68 584.612ZM1278.63 588.168C1277.56 588.168 1277.02 587.566 1277.02 586.502V582.344H1275.9V581.238H1277.02V579.39H1278.28V581.238H1279.65V582.344H1278.28V586.222C1278.28 586.698 1278.5 587.048 1278.94 587.048C1279.23 587.048 1279.5 586.922 1279.62 586.782L1279.94 587.734C1279.68 587.986 1279.29 588.168 1278.63 588.168ZM1285.33 588V587.076C1284.81 587.636 1283.96 588.168 1282.92 588.168C1281.48 588.168 1280.76 587.44 1280.76 586.012V581.238H1282.02V585.592C1282.02 586.712 1282.58 587.048 1283.45 587.048C1284.24 587.048 1284.95 586.6 1285.33 586.096V581.238H1286.59V588H1285.33ZM1288.3 588V581.238H1289.56V582.274C1290.08 581.602 1290.88 581.084 1291.78 581.084V582.358C1291.65 582.33 1291.51 582.316 1291.34 582.316C1290.71 582.316 1289.86 582.792 1289.56 583.296V588H1288.3ZM1292.34 584.612C1292.34 582.652 1293.75 581.07 1295.72 581.07C1297.75 581.07 1299.01 582.652 1299.01 584.724V585.032H1293.67C1293.76 586.18 1294.6 587.132 1295.96 587.132C1296.68 587.132 1297.46 586.852 1297.96 586.334L1298.55 587.16C1297.88 587.818 1296.93 588.168 1295.84 588.168C1293.82 588.168 1292.34 586.74 1292.34 584.612ZM1295.72 582.106C1294.37 582.106 1293.72 583.198 1293.65 584.122H1297.78C1297.75 583.226 1297.15 582.106 1295.72 582.106ZM1305.13 588V587.034C1304.62 587.706 1303.81 588.168 1302.91 588.168C1301.15 588.168 1299.89 586.838 1299.89 584.626C1299.89 582.456 1301.15 581.07 1302.91 581.07C1303.78 581.07 1304.58 581.49 1305.13 582.218V578.662H1306.39V588H1305.13ZM1305.13 586.068V583.184C1304.78 582.638 1304.02 582.19 1303.25 582.19C1301.99 582.19 1301.21 583.212 1301.21 584.626C1301.21 586.026 1301.99 587.048 1303.25 587.048C1304.02 587.048 1304.78 586.614 1305.13 586.068ZM1311.48 588V578.662H1314.81C1317.72 578.662 1319.66 580.65 1319.66 583.338C1319.66 586.04 1317.72 588 1314.81 588H1311.48ZM1312.88 586.768H1314.81C1316.97 586.768 1318.21 585.228 1318.21 583.338C1318.21 581.42 1317.01 579.894 1314.81 579.894H1312.88V586.768ZM1325.22 588V587.258C1324.68 587.846 1323.91 588.168 1323 588.168C1321.88 588.168 1320.65 587.412 1320.65 585.928C1320.65 584.388 1321.87 583.716 1323 583.716C1323.91 583.716 1324.7 584.01 1325.22 584.612V583.492C1325.22 582.652 1324.53 582.148 1323.56 582.148C1322.79 582.148 1322.14 582.442 1321.53 583.044L1320.99 582.176C1321.74 581.434 1322.67 581.07 1323.76 581.07C1325.23 581.07 1326.48 581.714 1326.48 583.436V588H1325.22ZM1325.22 586.516V585.368C1324.84 584.864 1324.18 584.598 1323.48 584.598C1322.57 584.598 1321.93 585.144 1321.93 585.942C1321.93 586.74 1322.57 587.286 1323.48 587.286C1324.18 587.286 1324.84 587.02 1325.22 586.516ZM1330.08 588.168C1329.01 588.168 1328.47 587.566 1328.47 586.502V582.344H1327.35V581.238H1328.47V579.39H1329.73V581.238H1331.1V582.344H1329.73V586.222C1329.73 586.698 1329.95 587.048 1330.38 587.048C1330.68 587.048 1330.94 586.922 1331.07 586.782L1331.39 587.734C1331.13 587.986 1330.73 588.168 1330.08 588.168ZM1336.39 588V587.258C1335.85 587.846 1335.08 588.168 1334.17 588.168C1333.05 588.168 1331.82 587.412 1331.82 585.928C1331.82 584.388 1333.04 583.716 1334.17 583.716C1335.08 583.716 1335.87 584.01 1336.39 584.612V583.492C1336.39 582.652 1335.7 582.148 1334.73 582.148C1333.96 582.148 1333.31 582.442 1332.7 583.044L1332.16 582.176C1332.91 581.434 1333.84 581.07 1334.93 581.07C1336.4 581.07 1337.65 581.714 1337.65 583.436V588H1336.39ZM1336.39 586.516V585.368C1336.01 584.864 1335.35 584.598 1334.65 584.598C1333.74 584.598 1333.1 585.144 1333.1 585.942C1333.1 586.74 1333.74 587.286 1334.65 587.286C1335.35 587.286 1336.01 587.02 1336.39 586.516Z" fill="#031B4E" fill-opacity="0.6"/>
<g clip-path="url(#clip1_0_3)">
<path d="M914.426 156.833C914.178 156.62 913.856 156.515 913.53 156.54C913.204 156.565 912.902 156.719 912.689 156.967L905.296 165.593C905.105 165.816 905 166.1 905 166.394C905 166.687 905.105 166.971 905.296 167.194L912.689 175.82C912.792 175.95 912.92 176.058 913.066 176.137C913.211 176.216 913.371 176.265 913.536 176.281C913.701 176.297 913.868 176.279 914.026 176.229C914.184 176.179 914.33 176.098 914.456 175.99C914.582 175.882 914.685 175.75 914.758 175.602C914.832 175.453 914.875 175.292 914.885 175.126C914.894 174.961 914.87 174.795 914.815 174.639C914.759 174.483 914.672 174.34 914.56 174.218L907.854 166.394L914.56 158.569C914.772 158.321 914.877 157.999 914.852 157.673C914.827 157.348 914.674 157.046 914.426 156.833Z" fill="#031B4E"/>
<path d="M939.204 165.592L931.811 156.967C931.708 156.837 931.58 156.729 931.434 156.65C931.289 156.571 931.129 156.522 930.964 156.506C930.799 156.49 930.632 156.507 930.474 156.557C930.316 156.607 930.17 156.689 930.044 156.796C929.918 156.904 929.815 157.036 929.742 157.185C929.668 157.333 929.625 157.495 929.616 157.66C929.606 157.826 929.63 157.991 929.685 158.147C929.741 158.304 929.828 158.447 929.941 158.568L936.646 166.393L929.941 174.217C929.828 174.339 929.741 174.482 929.685 174.638C929.63 174.794 929.606 174.96 929.616 175.126C929.625 175.291 929.668 175.453 929.742 175.601C929.815 175.75 929.918 175.882 930.044 175.99C930.17 176.097 930.316 176.179 930.474 176.229C930.632 176.279 930.799 176.296 930.964 176.28C931.129 176.264 931.289 176.215 931.434 176.136C931.58 176.057 931.708 175.949 931.811 175.819L939.204 167.194C939.395 166.971 939.5 166.687 939.5 166.393C939.5 166.099 939.395 165.815 939.204 165.592Z" fill="#031B4E"/>
<path d="M918.553 176.25C918.386 176.251 918.221 176.217 918.068 176.151C917.767 176.022 917.53 175.779 917.409 175.476C917.288 175.172 917.292 174.833 917.421 174.533L924.814 157.282C924.946 156.986 925.189 156.754 925.49 156.636C925.792 156.518 926.127 156.523 926.425 156.651C926.723 156.779 926.958 157.018 927.08 157.318C927.203 157.618 927.202 157.953 927.079 158.253L919.686 175.504C919.591 175.725 919.433 175.914 919.231 176.047C919.03 176.18 918.794 176.25 918.553 176.25V176.25Z" fill="#3669E9"/>
</g>
<path d="M879.333 206L875.623 196.662H877.219L880.201 204.474L883.197 196.662H884.793L881.083 206H879.333ZM886.222 198.104C885.788 198.104 885.41 197.754 885.41 197.306C885.41 196.858 885.788 196.494 886.222 196.494C886.67 196.494 887.034 196.858 887.034 197.306C887.034 197.754 886.67 198.104 886.222 198.104ZM885.606 206V199.238H886.866V206H885.606ZM888.173 202.612C888.173 200.652 889.587 199.07 891.561 199.07C893.591 199.07 894.851 200.652 894.851 202.724V203.032H889.503C889.601 204.18 890.441 205.132 891.799 205.132C892.513 205.132 893.297 204.852 893.801 204.334L894.389 205.16C893.717 205.818 892.765 206.168 891.673 206.168C889.657 206.168 888.173 204.74 888.173 202.612ZM891.561 200.106C890.203 200.106 889.559 201.198 889.489 202.122H893.619C893.591 201.226 892.989 200.106 891.561 200.106ZM902.013 206L900.347 200.806L898.681 206H897.379L895.251 199.238H896.567L898.107 204.39L899.801 199.238H900.893L902.587 204.39L904.127 199.238H905.443L903.315 206H902.013ZM915.019 206L912.793 202.402H911.043V206H909.643V196.662H913.577C915.355 196.662 916.573 197.81 916.573 199.532C916.573 201.212 915.439 202.108 914.249 202.262L916.643 206H915.019ZM915.131 199.532C915.131 198.552 914.403 197.894 913.395 197.894H911.043V201.17H913.395C914.403 201.17 915.131 200.512 915.131 199.532ZM917.145 202.612C917.145 200.652 918.559 199.07 920.533 199.07C922.563 199.07 923.823 200.652 923.823 202.724V203.032H918.475C918.573 204.18 919.413 205.132 920.771 205.132C921.485 205.132 922.269 204.852 922.773 204.334L923.361 205.16C922.689 205.818 921.737 206.168 920.645 206.168C918.629 206.168 917.145 204.74 917.145 202.612ZM920.533 200.106C919.175 200.106 918.531 201.198 918.461 202.122H922.591C922.563 201.226 921.961 200.106 920.533 200.106ZM929.683 206V201.674C929.683 200.554 929.109 200.19 928.241 200.19C927.457 200.19 926.743 200.666 926.379 201.17V206H925.119V199.238H926.379V200.19C926.827 199.644 927.723 199.07 928.773 199.07C930.201 199.07 930.943 199.826 930.943 201.254V206H929.683ZM937.475 206V205.034C936.971 205.706 936.159 206.168 935.263 206.168C933.499 206.168 932.239 204.838 932.239 202.626C932.239 200.456 933.499 199.07 935.263 199.07C936.131 199.07 936.929 199.49 937.475 200.218V196.662H938.735V206H937.475ZM937.475 204.068V201.184C937.125 200.638 936.369 200.19 935.599 200.19C934.339 200.19 933.555 201.212 933.555 202.626C933.555 204.026 934.339 205.048 935.599 205.048C936.369 205.048 937.125 204.614 937.475 204.068ZM940.053 202.612C940.053 200.652 941.467 199.07 943.441 199.07C945.471 199.07 946.731 200.652 946.731 202.724V203.032H941.383C941.481 204.18 942.321 205.132 943.679 205.132C944.393 205.132 945.177 204.852 945.681 204.334L946.269 205.16C945.597 205.818 944.645 206.168 943.553 206.168C941.537 206.168 940.053 204.74 940.053 202.612ZM943.441 200.106C942.083 200.106 941.439 201.198 941.369 202.122H945.499C945.471 201.226 944.869 200.106 943.441 200.106ZM948.027 206V199.238H949.287V200.274C949.805 199.602 950.603 199.084 951.499 199.084V200.358C951.373 200.33 951.233 200.316 951.065 200.316C950.435 200.316 949.581 200.792 949.287 201.296V206H948.027ZM952.057 202.612C952.057 200.652 953.471 199.07 955.445 199.07C957.475 199.07 958.735 200.652 958.735 202.724V203.032H953.387C953.485 204.18 954.325 205.132 955.683 205.132C956.397 205.132 957.181 204.852 957.685 204.334L958.273 205.16C957.601 205.818 956.649 206.168 955.557 206.168C953.541 206.168 952.057 204.74 952.057 202.612ZM955.445 200.106C954.087 200.106 953.443 201.198 953.373 202.122H957.503C957.475 201.226 956.873 200.106 955.445 200.106ZM964.847 206V205.034C964.343 205.706 963.531 206.168 962.635 206.168C960.871 206.168 959.611 204.838 959.611 202.626C959.611 200.456 960.871 199.07 962.635 199.07C963.503 199.07 964.301 199.49 964.847 200.218V196.662H966.107V206H964.847ZM964.847 204.068V201.184C964.497 200.638 963.741 200.19 962.971 200.19C961.711 200.19 960.927 201.212 960.927 202.626C960.927 204.026 961.711 205.048 962.971 205.048C963.741 205.048 964.497 204.614 964.847 204.068ZM902.362 221.684L903.16 220.606C903.79 221.306 904.798 221.922 906.1 221.922C907.612 221.922 908.144 221.152 908.144 220.48C908.144 219.5 907.08 219.22 905.89 218.912C904.392 218.52 902.656 218.086 902.656 216.182C902.656 214.642 904.014 213.522 905.96 213.522C907.402 213.522 908.536 213.984 909.362 214.824L908.55 215.86C907.836 215.104 906.856 214.768 905.848 214.768C904.812 214.768 904.098 215.3 904.098 216.084C904.098 216.924 905.106 217.19 906.268 217.484C907.794 217.89 909.572 218.366 909.572 220.354C909.572 221.81 908.564 223.168 906.044 223.168C904.378 223.168 903.16 222.566 902.362 221.684ZM913.882 223.168C911.782 223.168 910.466 221.572 910.466 219.612C910.466 217.666 911.782 216.07 913.882 216.07C915.996 216.07 917.298 217.666 917.298 219.612C917.298 221.572 915.996 223.168 913.882 223.168ZM913.882 222.048C915.24 222.048 915.982 220.9 915.982 219.612C915.982 218.338 915.24 217.19 913.882 217.19C912.538 217.19 911.782 218.338 911.782 219.612C911.782 220.9 912.538 222.048 913.882 222.048ZM923.182 223V222.076C922.664 222.636 921.81 223.168 920.774 223.168C919.332 223.168 918.618 222.44 918.618 221.012V216.238H919.878V220.592C919.878 221.712 920.438 222.048 921.306 222.048C922.09 222.048 922.804 221.6 923.182 221.096V216.238H924.442V223H923.182ZM926.158 223V216.238H927.418V217.274C927.936 216.602 928.734 216.084 929.63 216.084V217.358C929.504 217.33 929.364 217.316 929.196 217.316C928.566 217.316 927.712 217.792 927.418 218.296V223H926.158ZM930.189 219.612C930.189 217.582 931.589 216.07 933.633 216.07C934.907 216.07 935.677 216.602 936.167 217.26L935.327 218.03C934.921 217.456 934.375 217.19 933.689 217.19C932.359 217.19 931.505 218.212 931.505 219.612C931.505 221.012 932.359 222.048 933.689 222.048C934.375 222.048 934.921 221.768 935.327 221.208L936.167 221.978C935.677 222.636 934.907 223.168 933.633 223.168C931.589 223.168 930.189 221.642 930.189 219.612ZM936.854 219.612C936.854 217.652 938.268 216.07 940.242 216.07C942.272 216.07 943.532 217.652 943.532 219.724V220.032H938.184C938.282 221.18 939.122 222.132 940.48 222.132C941.194 222.132 941.978 221.852 942.482 221.334L943.07 222.16C942.398 222.818 941.446 223.168 940.354 223.168C938.338 223.168 936.854 221.74 936.854 219.612ZM940.242 217.106C938.884 217.106 938.24 218.198 938.17 219.122H942.3C942.272 218.226 941.67 217.106 940.242 217.106Z" fill="#031B4E" fill-opacity="0.6"/>
</g>
<defs>
<linearGradient id="paint0_linear_0_3" x1="800" y1="0" x2="800" y2="722" gradientUnits="userSpaceOnUse">
<stop stop-color="#031B4E" stop-opacity="0.05"/>
<stop offset="1" stop-color="#031B4E" stop-opacity="0"/>
</linearGradient>
<radialGradient id="paint1_radial_0_3" cx="0" cy="0" r="1" gradientUnits="userSpaceOnUse" gradientTransform="translate(786 175.175) rotate(90) scale(854.825)">
<stop stop-color="#D9D9D9"/>
<stop offset="1" stop-color="#D9D9D9" stop-opacity="0"/>
</radialGradient>
<clipPath id="clip0_0_3">
<rect width="1600" height="722" fill="white"/>
</clipPath>
<clipPath id="clip1_0_3">
<rect width="36" height="36" fill="white" transform="translate(905 149)"/>
</clipPath>
</defs>
</svg>
